<svg xmlns="http://www.w3.org/2000/svg" xml:space="preserve" width="210mm" height="297mm" viewBox="0 0 210 297"><path d="M136.43 173.42c-13.65-1.93-23.72-12.08-26.15-26.34-.55-3.22-.4-10.55.28-13.62a46 46 0 0 1 6.94-15.87c2.06-2.9 7.3-8.28 9.97-10.24a45 45 0 0 1 18.55-7.95c3.88-.72 10.71-.59 15.32.29 2.02.39 4.2.7 4.84.7q1.16 0 1.3.4c.18.47-.64 17.14-.87 17.74-.09.24-.4.38-.72.33-.53-.08-.57-.27-.72-3.52-.23-4.9-.78-6.72-2.88-9.54a13 13 0 0 0-5.72-4c-2.5-.93-7.21-1.15-10.43-.5-9.89 2-19.3 10.7-23.36 21.6-1.72 4.6-2.14 7.29-2.14 13.6 0 4.87.09 6.08.72 9.69 2.78 15.92 8.78 23.94 18.97 25.38 5.04.71 12.15-1.44 16.57-5.01a20.3 20.3 0 0 0 6.37-10.08c.4-1.42.47-2.8.47-7.93v-6.22l-.79-1.58c-1.48-2.93-3.72-3.3-9.75-1.62-1.87.52-3.5.88-3.64.8-.46-.28-.23-1.19.36-1.44.33-.15 5.54-1.68 11.57-3.42l14.74-4.27c2.06-.61 3.93-1.04 4.16-.95.73.28.45.96-.57 1.4-5.48 2.39-6.98 4.01-7.64 8.25-.1.63-.02 5.15.17 10.05l.34 8.9-.88.67-4.2 3.33c-1.84 1.46-4.11 3.2-5.06 3.87a45 45 0 0 1-14.99 6.57c-2.95.62-8.59.89-11.13.53m-56.51-5.13c-1.2-.45-2.03-1.15-2.03-1.7 0-.22.3-.92.67-1.55.8-1.36 1.37-1.46 2.8-.46 1.97 1.36 4.25.98 5.9-.98.78-.93 2.53-4.25 2.53-4.8 0-.4-8.8-19.86-9.39-20.74a2.6 2.6 0 0 0-1.38-.8c-.74-.18-1-.38-1-.76 0-.5.2-.52 4.5-.52 4.46 0 4.5 0 4.58.6.07.5-.04.59-.68.59-.42 0-.98.16-1.25.35-.46.34-.4.54 1.03 3.77 3.92 8.86 5.55 12.28 5.75 12.08.42-.42 6.04-14.63 6.04-15.27 0-.54-.16-.67-.99-.8-1.51-.26-1.7-.36-1.6-.86.08-.41.47-.46 3.66-.46 3.3 0 3.56.03 3.56.5 0 .34-.35.62-1.19.92-1.43.52-1.45.54-4.73 8.63a826 826 0 0 1-3.2 7.8c-.45 1.1-1.18 2.88-1.6 3.98-2.21 5.6-4.38 8.8-6.8 10.02-1.47.74-3.86.95-5.18.46m102.24-2.04c-2.75-.58-4.46-4.44-3.12-7.03.92-1.78 3.02-2.88 4.77-2.48 2.35.53 4.15 3.3 3.64 5.6-.64 2.8-2.82 4.43-5.29 3.91m-82.31-2.9c0-.3.47-1 1.05-1.54 1.3-1.24 1.4-2.02.27-2.24-1.04-.21-1.93-1.59-1.73-2.68.19-1 1.06-1.92 2-2.13.95-.2 2.5.45 2.93 1.24.6 1.08.4 3.16-.45 4.71-1.2 2.23-4.07 4.09-4.07 2.64m-34.2-3.84c-4.49-1.09-7.5-4.15-8.42-8.52a17 17 0 0 1 .69-8.37c1.96-4.84 7.23-7.87 12.26-7.06 4.42.7 7.4 3.42 8.23 7.5.36 1.78.2 2.46-.6 2.68a133 133 0 0 1-8.57.16h-7.98l-.17.76c-.24 1.1.28 4.74.92 6.44a9.2 9.2 0 0 0 3.78 4.48 8.3 8.3 0 0 0 7.96-.66 7.5 7.5 0 0 0 2.97-3.84c.5-1.2.73-1.5 1.21-1.5.35 0 .65.2.7.43.15.85-1.06 3.42-2.25 4.74-2.48 2.76-6.49 3.79-10.72 2.76m8.68-16.72c-.26-2.18-1.28-4.17-2.6-5.04-.97-.64-1.33-.71-3.37-.71-2.06 0-2.4.07-3.4.73-1.33.88-2.73 2.98-3.32 4.95-.23.78-.42 1.46-.42 1.5s2.99.1 6.64.1h6.65zM29.5 158.81c.07-.47.31-.64 1.1-.76a3 3 0 0 0 1.25-.42c.16-.16.23-5.77.19-14.77l-.07-14.51-1.17-.29c-.64-.15-1.22-.43-1.28-.61-.17-.53 1-.81 3.8-.9l2.62-.1.07 6.58.07 6.58 1.33-1.24c4.97-4.65 13.58-3.66 15.18 1.73.34 1.13.42 2.9.42 9.37 0 5.84.08 8.05.31 8.28.18.18.7.32 1.16.32.93 0 1.69.65 1.26 1.08-.16.15-2.1.23-4.87.18-4.41-.07-4.61-.1-4.61-.6 0-.42.23-.56 1.15-.68.63-.08 1.25-.32 1.39-.53s.21-3.84.17-8.58c-.08-9.3-.14-9.61-2.14-10.93-.92-.61-1.34-.7-3.07-.7s-2.2.1-3.42.78a9 9 0 0 0-3.66 3.8c-.42.85-.48 1.83-.54 8.11-.04 4.06.03 7.3.17 7.52.14.2.76.45 1.4.53.91.12 1.14.26 1.14.68 0 .5-.2.53-4.72.6l-4.71.08zm153.69-3.24c-.2-.24-.26-.77-.16-1.4.28-1.8 2.22-19.07 2.8-25.07l.53-4.9c.15-1.23.63-5.46 1.06-9.39s.92-7.62 1.08-8.2c.59-2.09 3.04-3.83 5.4-3.83 3.18 0 5.84 2.84 5.29 5.64-.1.46-1.9 6.13-4.02 12.6-6.14 18.79-7.94 24.44-9.38 29.51-1.57 5.53-1.81 6-2.6 5.04" style="fill:#e8e8e8" transform="translate(-6.16 11.48)"/><path d="M135.12 173.04a30.1 30.1 0 0 1-23.1-19.86c-1.45-4.16-1.9-6.9-1.92-11.78-.02-5.16.4-7.94 1.91-12.46 2.62-7.89 7.23-14.53 14.03-20.2a44.5 44.5 0 0 1 19.2-9.06c3.63-.73 11.93-.67 15.88.12 1.61.33 3.66.67 4.56.76 1.17.12 1.66.3 1.76.6.08.24.03 1.63-.1 3.08a158 158 0 0 0-.41 7.13c-.23 6.38-.34 7.28-.92 7.28-.41 0-.49-.38-.63-3.38-.1-1.85-.34-4-.55-4.76q-1.9-6.88-9.02-9.13c-2.6-.81-8.04-.8-11.12.03-7.88 2.12-15.71 8.8-20.2 17.24-2.9 5.45-4.1 10.8-4.07 17.99.05 9.3 2.38 19.37 5.89 25.42 1.39 2.4 5.32 6.41 7.43 7.58 2.83 1.58 4.97 2.06 8.97 2.04 3.09-.02 3.9-.12 5.95-.74 6.41-1.94 10.53-5.18 13.24-10.41 1.46-2.84 2-5.4 2.17-10.13.24-7.41-.52-10.6-2.82-11.82-1.7-.9-3.68-.82-7.8.3-1.87.52-3.5.93-3.64.93s-.22-.26-.17-.58c.07-.52.79-.78 6.83-2.52l14.87-4.3c4.47-1.32 8.37-2.38 8.68-2.38 1.12 0 .4.84-1.23 1.45-3.04 1.15-4.91 2.74-6.02 5.15-.54 1.16-.56 1.58-.56 11.62v10.41l-.93.69c-.5.38-2.41 1.87-4.23 3.32-7.16 5.71-12.67 8.55-19.58 10.09-2.7.6-9.8.76-12.35.28m-55.38-4.93c-1.65-.7-1.93-1.5-1.05-2.99.74-1.25 1.22-1.37 2.37-.57 3.02 2.1 5.8.95 7.9-3.25 1.16-2.33 1.18-2.65.27-4.57-.44-.93-2.29-4.95-4.1-8.93-4.72-10.38-4.62-10.19-5.92-10.7-1.9-.75-1.06-.99 3.45-.99 3.33 0 4.22.07 4.22.35 0 .2-.44.46-.99.6-.72.17-1.01.4-1.07.82-.11.75 6.63 15.96 7.07 15.96.11 0 .38-.45.6-1 4.5-11.15 5.77-14.37 5.77-14.69 0-.53-.49-.89-1.59-1.17-1.7-.44-.95-.74 2.1-.81 3.42-.09 3.95 0 3.46.6-.18.22-.55.4-.81.4-.27 0-.79.27-1.15.6-.64.56-1.37 2.27-8.76 20.48-2.28 5.62-4.08 8.23-6.55 9.52-1.02.52-4.28.74-5.22.34m101.73-2.24a5.1 5.1 0 0 1-2.77-4.4c-.02-2.5 2.08-4.72 4.43-4.72 1.2 0 3.08 1.36 3.73 2.7a4.2 4.2 0 0 1 0 4.1c-1.07 2.22-3.58 3.3-5.39 2.32m-81.36-2.6c0-.19.31-.63.69-.99.69-.64 1.43-1.84 1.43-2.32 0-.14-.36-.34-.8-.43-1.81-.4-2.4-2.53-1.07-3.86.86-.86 1.75-.98 2.9-.39 1.42.73 1.73 3.16.67 5.21-.96 1.85-3.82 3.94-3.82 2.79m-35.28-4.12c-4.6-1.52-7.27-5.07-7.74-10.3-.55-6.16 3.61-11.97 9.34-13.04 5.14-.96 10.09 1.63 11.43 5.97.64 2.07.7 3.14.2 3.55-.24.2-3.07.32-8.66.37l-8.31.07-.08 1.79c-.21 4.78 1.89 9.01 5.18 10.45 1.52.66 4.63.57 6.34-.19a9.3 9.3 0 0 0 4.39-4.73c.36-1 .63-1.37 1-1.37q1.09-.02-.26 2.78a9 9 0 0 1-4.22 4.28c-1.97.97-6.25 1.15-8.61.37m9.57-16.36a6.6 6.6 0 0 0-2.02-4.73c-2.4-2.33-7.18-1.68-9.31 1.27-.88 1.21-1.85 3.62-1.85 4.6v.65H74.5zm-44.34 16.43c-.7-.29-.3-.84.75-1.02.8-.14 1.13-.34 1.32-.83.33-.88.33-27.9 0-28.77-.19-.48-.48-.68-1.13-.74q-.85-.09-.87-.48c0-.29.44-.45 1.59-.58l2.58-.3c1.77-.22 1.78-.17 1.78 7.12v6.46l.94-1.04a11 11 0 0 1 5-3.07c2.93-.85 7.02-.13 8.84 1.54a8 8 0 0 1 1.26 1.9c.61 1.3.63 1.48.63 9.32 0 4.42.11 8.28.25 8.65.19.49.52.71 1.26.84 1.33.24 1.49.36 1.12.8-.47.56-8.25.54-8.71-.02-.37-.44-.32-.47 1.32-.87l.92-.22.07-8.6c.07-8.53.07-8.62-.54-9.78a4 4 0 0 0-2.05-1.92c-1.26-.65-1.64-.73-2.98-.6a8.4 8.4 0 0 0-6.83 4.8c-.47 1.05-.5 1.75-.44 8.64l.07 7.49 1.1.27c1.33.31 1.67.6 1.15.93-.4.25-7.8.32-8.4.08m153.22-3.94a5 5 0 0 1 0-1.65c.1-.69.58-5 1.09-9.58l1.87-16.94.65-6.08c.24-2.35.73-6.78 1.31-11.83.49-4.18 2.31-6.17 5.66-6.16 3.19.02 5.47 2.27 5.15 5.1-.07.62-1.83 6.3-3.9 12.63-6.03 18.36-7.62 23.33-9.28 29.04-.86 2.95-1.63 5.48-1.72 5.62-.24.39-.65.31-.83-.15" style="fill:#d8d8d8" transform="translate(-6.16 11.48)"/><path d="M136.35 173.13a33 33 0 0 1-13.92-5.75c-6.2-4.62-10.47-11.88-11.89-20.26-.55-3.25-.4-10.57.28-13.66 3.27-14.85 14.48-27.37 28.79-32.14 4.93-1.64 7.65-2.07 13.15-2.08 4.23 0 5.4.1 8.58.7 2.02.4 4.14.72 4.7.72q1.03 0 1.18.4c.18.47-.64 16.6-.88 17.21-.08.22-.28.36-.45.3-.18-.06-.36-1.32-.46-3.38-.2-4.01-.5-5.38-1.74-7.71-1.53-2.92-4.02-4.91-7.75-6.2-1.2-.4-2.2-.49-5.56-.47-3.68.01-4.34.09-6.46.74-4.78 1.46-8.8 4.03-13.12 8.36a36 36 0 0 0-9.82 18.26c-.77 3.7-.95 10.59-.38 14.69 2.06 14.92 6.25 23.26 13.62 27.1 2.7 1.4 5.05 1.95 8.36 1.95 9.26 0 17.87-5.82 20.46-13.84.98-3.05 1.17-5.04 1.03-10.55-.15-5.87-.45-7.18-1.92-8.46-1.76-1.55-4.29-1.6-9.12-.18-2.4.7-3.44.83-3.44.41 0-.14.2-.36.46-.5.43-.22 28.33-8.42 29.63-8.7.78-.17.84.72.06.92a16 16 0 0 0-5.34 3.08 9.2 9.2 0 0 0-2.48 5.44c-.1.75-.03 5.2.16 9.91.2 5 .23 8.73.1 8.97-.13.23-.73.76-1.34 1.17s-2.2 1.63-3.53 2.72c-4 3.3-6.84 5.2-10.18 6.86-7.06 3.5-14.05 4.84-20.78 3.97m-56.22-5c-.91-.29-1.98-1.19-1.98-1.67 0-.54 1.32-2.3 1.72-2.3.2 0 .8.3 1.34.65 1.99 1.35 4.16 1.12 5.92-.63 1.03-1.04 2.93-4.49 2.93-5.34 0-.5-8.65-19.65-9.4-20.79a3.6 3.6 0 0 0-1.38-1.06c-1.51-.63-.61-.87 3.24-.87 3.32 0 4.88.28 3.7.66-1.64.53-1.78.64-1.6 1.39.16.6 3.93 9.17 6.36 14.41.7 1.52 1.02 1.82 1.27 1.2.07-.2 1.45-3.6 3.07-7.6 1.62-3.98 2.94-7.59 2.94-8 0-.75-.2-.91-1.71-1.4-.44-.14-.46-.2-.14-.42.52-.32 5.48-.32 5.68 0 .09.15-.37.51-1 .82-1.37.63-1.56 1-4.78 8.98a689 689 0 0 1-2.8 6.88c-.47 1.1-1.38 3.36-2.03 5.03-2.06 5.27-4.17 8.36-6.5 9.55a8.5 8.5 0 0 1-4.85.5m101.34-2.26a5.1 5.1 0 0 1-2.77-4.4c-.02-2.5 2.08-4.72 4.43-4.72 1.2 0 3.08 1.36 3.73 2.7a4.2 4.2 0 0 1 0 4.1c-1.07 2.22-3.58 3.3-5.39 2.32m-81.23-2.52c-.1-.15.31-.8.9-1.45 1.15-1.24 1.39-2.16.62-2.4-1.65-.53-2.36-1.54-2.03-2.87.25-.97 1.6-1.8 2.62-1.6 2.86.53 2.86 4.41-.01 7.2-1.45 1.42-1.8 1.6-2.1 1.12m-34.79-4.15a10.7 10.7 0 0 1-5.5-3.37c-2.07-2.26-2.55-3.76-2.56-7.97v-3.46l1.12-2.27a11 11 0 0 1 5.3-5.4c1.28-.62 1.93-.74 4.29-.83 3.6-.13 5.25.43 7.46 2.54a8.5 8.5 0 0 1 2.7 5.24c.34 1.99.49 1.96-8.97 1.96H61l-.15.99c-.22 1.35.24 4.73.88 6.42q2.23 5.88 8.05 5.5c3.3-.22 5.54-1.8 6.98-4.91q1.41-3.08 1.4-1.1c0 1.16-1.49 3.82-2.74 4.89-2.25 1.93-6.56 2.7-9.96 1.77m8.97-14.72c.5-.6.1-3.1-.73-4.74a5.5 5.5 0 0 0-4.04-3.13c-2.8-.56-5.66.86-7.24 3.58-.7 1.2-1.57 4-1.36 4.34.08.12 3.04.25 6.59.28 5.49.06 6.5 0 6.78-.33M30.06 158.8c.06-.17.43-.4.83-.5 1.57-.43 1.49.44 1.49-15.34v-14.5l-.59-.41a2.3 2.3 0 0 0-1.06-.42c-.8 0-.51-.5.4-.66a24 24 0 0 1 2.7-.2l1.86-.06.07 6.68c.03 3.67.14 6.68.22 6.68a12 12 0 0 0 1.69-1.41 10.4 10.4 0 0 1 8.4-2.95q4.26.5 5.98 3.7c.54 1 .57 1.48.7 9.7.07 4.75.22 8.73.33 8.84.1.1.63.26 1.16.35s.95.28.93.42c-.02.17-1.6.27-4.14.27-2.55 0-4.1-.1-4.11-.27-.01-.14.37-.34.84-.44 1.54-.31 1.55-.38 1.55-8.82 0-6.1-.08-7.99-.4-9.05-1.52-5.13-9.42-4.47-12.35 1.04-.59 1.09-.61 1.41-.7 8.37-.08 8.08-.02 8.4 1.59 8.55.46.05.89.24.95.42.08.25-.87.33-4.17.33-3.2 0-4.25-.08-4.17-.32m153.26-3.66c-.1-.15-.1-.6-.02-.99.08-.4.45-3.46.82-6.8l.93-8.2c.14-1.17.49-4.5.78-7.42l.8-7.54c.16-1.23.63-5.46 1.06-9.39s.94-7.62 1.12-8.2c1.1-3.55 6.14-4.76 8.8-2.1a5 5 0 0 1 1.32 3.9c-.1.47-2.35 7.51-5.03 15.66-5.45 16.61-7.02 21.58-8.57 27.07a63 63 0 0 1-1.22 4.04c-.2.32-.58.31-.8-.03" style="fill:#f7d6a5" transform="translate(-6.16 11.48)"/><path d="M136.35 173.13a33 33 0 0 1-13.92-5.75c-6.2-4.62-10.47-11.88-11.89-20.26-.55-3.25-.4-10.57.28-13.66 3.27-14.85 14.48-27.37 28.79-32.14 4.93-1.64 7.65-2.07 13.15-2.08 4.23 0 5.4.1 8.58.7 2.02.4 4.14.72 4.7.72q1.03 0 1.18.4c.18.47-.64 16.6-.88 17.21-.08.22-.28.36-.45.3-.18-.06-.36-1.32-.46-3.38-.2-4.01-.5-5.38-1.74-7.71-1.53-2.92-4.02-4.91-7.75-6.2-1.2-.4-2.2-.49-5.56-.47-3.68.01-4.34.09-6.46.74-4.78 1.46-8.8 4.03-13.12 8.36a36 36 0 0 0-9.82 18.26c-.77 3.7-.95 10.59-.38 14.69 2.06 14.92 6.25 23.26 13.62 27.1 2.7 1.4 5.05 1.95 8.36 1.95 9.26 0 17.87-5.82 20.46-13.84.98-3.05 1.17-5.04 1.03-10.55-.15-5.87-.45-7.18-1.92-8.46-1.76-1.55-4.29-1.6-9.12-.18-2.4.7-3.44.83-3.44.41 0-.14.2-.36.46-.5.43-.22 28.33-8.42 29.63-8.7.78-.17.84.72.06.92a16 16 0 0 0-5.34 3.08 9.2 9.2 0 0 0-2.48 5.44c-.1.75-.03 5.2.16 9.91.2 5 .23 8.73.1 8.97-.13.23-.73.76-1.34 1.17s-2.2 1.63-3.53 2.72c-4 3.3-6.84 5.2-10.18 6.86-7.06 3.5-14.05 4.84-20.78 3.97m-56.22-5c-.91-.29-1.98-1.19-1.98-1.67 0-.54 1.32-2.3 1.72-2.3.2 0 .8.3 1.34.65 1.99 1.35 4.16 1.12 5.92-.63 1.03-1.04 2.93-4.49 2.93-5.34 0-.5-8.65-19.65-9.4-20.79a3.6 3.6 0 0 0-1.38-1.06c-1.51-.63-.61-.87 3.24-.87 3.32 0 4.88.28 3.7.66-1.64.53-1.78.64-1.6 1.39.16.6 3.93 9.17 6.36 14.41.7 1.52 1.02 1.82 1.27 1.2.07-.2 1.45-3.6 3.07-7.6 1.62-3.98 2.94-7.59 2.94-8 0-.75-.2-.91-1.71-1.4-.44-.14-.46-.2-.14-.42.52-.32 5.48-.32 5.68 0 .09.15-.37.51-1 .82-1.37.63-1.56 1-4.78 8.98a689 689 0 0 1-2.8 6.88c-.47 1.1-1.38 3.36-2.03 5.03-2.06 5.27-4.17 8.36-6.5 9.55a8.5 8.5 0 0 1-4.85.5m100.94-2.98a4.4 4.4 0 0 1-1.85-3.71c0-2.34 1.3-3.9 3.42-4.1 1.63-.16 2.82.5 3.67 2.01 1.57 2.8-.25 6.4-3.25 6.4-.72 0-1.42-.22-1.99-.6m-80.83-1.8c-.1-.15.31-.8.9-1.45 1.15-1.24 1.39-2.16.62-2.4-1.65-.53-2.36-1.54-2.03-2.87.25-.97 1.6-1.8 2.62-1.6 2.86.53 2.86 4.41-.01 7.2-1.45 1.42-1.8 1.6-2.1 1.12m-34.79-4.15a10.7 10.7 0 0 1-5.5-3.37c-2.07-2.26-2.55-3.76-2.56-7.97v-3.46l1.12-2.27a11 11 0 0 1 5.3-5.4c1.28-.62 1.93-.74 4.29-.83 3.6-.13 5.25.43 7.46 2.54a8.5 8.5 0 0 1 2.7 5.24c.34 1.99.49 1.96-8.97 1.96H61l-.15.99c-.22 1.35.24 4.73.88 6.42q2.23 5.88 8.05 5.5c3.3-.22 5.54-1.8 6.98-4.91q1.41-3.08 1.4-1.1c0 1.16-1.49 3.82-2.74 4.89-2.25 1.93-6.56 2.7-9.96 1.77m8.97-14.72c.5-.6.1-3.1-.73-4.74a5.5 5.5 0 0 0-4.04-3.13c-2.8-.56-5.66.86-7.24 3.58-.7 1.2-1.57 4-1.36 4.34.08.12 3.04.25 6.59.28 5.49.06 6.5 0 6.78-.33M30.06 158.8c.06-.17.43-.4.83-.5 1.57-.43 1.49.44 1.49-15.34v-14.5l-.59-.41a2.3 2.3 0 0 0-1.06-.42c-.8 0-.51-.5.4-.66a24 24 0 0 1 2.7-.2l1.86-.06.07 6.68c.03 3.67.14 6.68.22 6.68a12 12 0 0 0 1.69-1.41 10.4 10.4 0 0 1 8.4-2.95q4.26.5 5.98 3.7c.54 1 .57 1.48.7 9.7.07 4.75.22 8.73.33 8.84.1.1.63.26 1.16.35s.95.28.93.42c-.02.17-1.6.27-4.14.27-2.55 0-4.1-.1-4.11-.27-.01-.14.37-.34.84-.44 1.54-.31 1.55-.38 1.55-8.82 0-6.1-.08-7.99-.4-9.05-1.52-5.13-9.42-4.47-12.35 1.04-.59 1.09-.61 1.41-.7 8.37-.08 8.08-.02 8.4 1.59 8.55.46.05.89.24.95.42.08.25-.87.33-4.17.33-3.2 0-4.25-.08-4.17-.32m153.26-3.66c-.1-.15-.1-.6-.02-.99.08-.4.45-3.46.82-6.8l.93-8.2c.14-1.17.49-4.5.78-7.42l.8-7.54c.16-1.23.63-5.46 1.06-9.39s.94-7.62 1.12-8.2c1.1-3.55 6.14-4.76 8.8-2.1a5 5 0 0 1 1.32 3.9c-.1.47-2.35 7.51-5.03 15.66-5.45 16.61-7.02 21.58-8.57 27.07a63 63 0 0 1-1.22 4.04c-.2.32-.58.31-.8-.03" style="fill:#c6c6c6" transform="translate(-6.16 11.48)"/><path d="M138.87 173.23c-5.55-.3-10.23-1.9-15.35-5.23-6.31-4.1-10.88-11.23-12.7-19.85-.65-3.03-.66-10.8-.03-13.98 2.23-11.3 9.35-21.67 19.35-28.2a43 43 0 0 1 15.88-6.15c4.1-.7 11.45-.57 15.6.29 1.46.3 3.19.55 3.84.55 1.97 0 1.96-.02 1.63 4-.16 1.95-.36 5.38-.44 7.64-.17 4.5-.34 6.08-.64 6.08-.11 0-.28-1.34-.38-2.97-.3-5.29-1.42-8.32-4.01-10.91-3.79-3.79-10.43-4.98-17.46-3.14-4.16 1.1-9.3 4.29-13.26 8.24q-10.8 10.8-10.72 26.9c.05 10.95 3.25 22.6 7.76 28.29a19.6 19.6 0 0 0 9.74 6.67c2.77.76 7.42.66 10.62-.22 6.66-1.84 11.2-5.42 13.85-10.92 1.9-3.97 2.34-7 1.99-13.78-.27-5.02-.54-6.2-1.76-7.4-1.7-1.7-4.26-1.8-9.45-.37-2.72.76-3.5.82-2.93.26.26-.26 4.09-1.43 13.74-4.21l10.58-3.07c2.76-.8 5.17-1.46 5.36-1.46.83 0 .18.5-1.72 1.33-3 1.31-4.85 3.22-5.64 5.82-.57 1.87-.58 2.18-.4 9.23a287 287 0 0 0 .34 9.35c.18 2.38.74 1.68-4.81 6.09-4.64 3.69-6.43 4.92-9.42 6.52-5.97 3.18-13.26 4.93-19.16 4.6m-59.6-5.63c-.97-.6-1.08-1.25-.4-2.4.63-1.08 1.08-1.15 2.23-.36a5.2 5.2 0 0 0 4.27.66c1.79-.6 4.69-4.67 4.69-6.6 0-.43-1.9-4.94-4.33-10.26-5.22-11.46-5.07-11.16-5.87-11.53-1.25-.57-.62-.73 2.72-.73l3.38.01-.73.54c-.4.3-.73.78-.73 1.06 0 .65 7.01 16.2 7.36 16.32.27.09.62-.71 4.1-9.34 2.83-7.04 2.84-7.06 1.77-7.84-.72-.53-.76-.63-.34-.8.64-.25 3.52-.23 4.18.03.46.18.4.26-.53.7-1.55.74-1.15-.1-8.5 18.04-3.49 8.65-4.95 11.04-7.54 12.33-1.8.9-4.4.97-5.72.17m101.8-2.45a4.4 4.4 0 0 1-1.85-3.71c0-2.34 1.3-3.9 3.42-4.1 1.63-.16 2.82.5 3.67 2.01 1.57 2.8-.25 6.4-3.25 6.4-.72 0-1.42-.22-1.99-.6m-80.7-2c0-.13.31-.51.7-.87 1.43-1.34 1.77-2.89.62-2.89-.86 0-1.84-1.16-1.84-2.19 0-1.2.9-2.04 2.2-2.04 2.09 0 2.96 2.43 1.77 4.9a6 6 0 0 1-2.08 2.58q-1.34 1.1-1.36.5m-33.86-3.8c-3.13-.51-6.4-2.69-7.73-5.15a13.7 13.7 0 0 1-.18-12.17c1.48-3.14 5.37-5.96 8.12-5.9l.98.03-.83.24a9.5 9.5 0 0 0-4.11 3.02c-.8 1.16-1.8 3.85-1.8 4.82v.61l6.8-.07 6.82-.07-.02-1.72c-.04-3.05-1.8-5.7-4.33-6.47l-1.2-.37 1.34-.02c1-.01 1.76.19 2.95.78 2.84 1.42 4.62 4.04 4.67 6.87l.03 1.46-8.46.07c-6.35.05-8.5.15-8.66.4-.33.52-.24 3.6.17 5.52 1 4.72 3.93 7.42 8.08 7.47q5.22.07 7.58-4.75c1.42-2.87 2.09-2.49.74.42-1.32 2.85-3.31 4.3-6.71 4.91-2.26.4-2.26.4-4.25.08m-35.82-.41c-.4-.1-.27-.23.55-.6.97-.43 1.07-.58 1.23-1.73.23-1.65.19-25.84-.05-27.38-.13-.88-.33-1.26-.77-1.45-1.22-.54-.41-.85 2.58-1l1.46-.06.07 6.97.07 6.98 1.43-1.5c2-2.08 4.29-3.12 7.19-3.27q5.64-.3 7.55 3.58c.6 1.23.62 1.46.68 9.73.07 8.24.09 8.48.63 8.93.3.25.81.46 1.12.46q.69-.02.17.26c-.47.3-6.25.32-7 .02-.47-.18-.43-.23.32-.4.48-.1.99-.42 1.14-.7.18-.33.24-3.5.2-8.9-.08-7.93-.11-8.46-.63-9.46-2.24-4.29-9.6-3.05-12.13 2.04l-.68 1.37v7.46c0 8.15-.05 7.89 1.6 8.22.75.15.8.2.37.38-.56.22-6.29.26-7.1.05m152.77-4.35c0-.34.24-2.7.53-5.25a1110 1110 0 0 0 1.57-14.29l1.2-10.98c1.92-17.78 1.94-17.87 3.26-19.27q2.02-2.11 5.16-1.45c2.43.51 3.81 2.43 3.56 4.94-.07.68-2.4 8.14-5.17 16.58a839 839 0 0 0-8.99 28.42c-.49 1.72-1.13 2.45-1.12 1.3" style="fill:#afafaf" transform="translate(-6.16 11.48)"/><path d="M136.5 172.98c-13.36-2.07-23.07-11.67-25.67-25.37a46 46 0 0 1-.04-12.69 41.5 41.5 0 0 1 6.33-15.8q8.73-13.14 23.08-17.75c4.96-1.6 7.01-1.9 12.83-1.87 4.45.02 5.64.11 8.7.72 1.95.39 3.93.7 4.4.7.96 0 1.24.4 1.04 1.53-.07.4-.3 3.93-.52 7.85s-.45 7.17-.5 7.23c-.07.06-.18-.6-.27-1.44-.68-6.7-1.64-9.28-4.4-11.84-3.12-2.88-5.65-3.72-11.1-3.7-4.63.02-6.74.5-10.71 2.49-3.4 1.69-5.7 3.4-9.01 6.73a36.4 36.4 0 0 0-10.08 19.26c-.73 3.96-.6 11.65.28 16.92 1.8 10.65 4.56 16.96 9.4 21.44 5.94 5.5 14.46 6.26 23.03 2.02 2.4-1.19 3.1-1.7 5.18-3.78 2.02-2.01 2.6-2.8 3.65-4.91 1.73-3.5 2.28-6.3 2.28-11.65 0-6.28-.52-8.75-2.15-10.21-1.81-1.63-5.12-1.54-11.58.33q-.66.19-.45-.13c.1-.17.4-.3.66-.3s1.35-.3 2.43-.68c3.7-1.26 25.5-7.55 26.08-7.51.13 0-.7.49-1.84 1.07-2.17 1.1-4.07 2.77-4.8 4.2-.25.47-.62 1.7-.84 2.73-.34 1.62-.35 3.05-.08 10.41.17 4.7.24 8.8.14 9.14s-.63.91-1.2 1.27a52 52 0 0 0-3.46 2.65c-7.09 5.82-12.99 8.9-20.1 10.46-1.94.42-9.02.74-10.72.48m-56.63-5.22a4 4 0 0 1-1.18-.81c-.34-.41-.32-.58.13-1.43.62-1.15 1.2-1.31 2.17-.63.4.29 1.19.66 1.75.85 1.98.64 4.4-.62 6.04-3.14 1.02-1.57.72-.6-.39 1.25-1.16 1.94-3.05 3.6-4.53 3.98a6.5 6.5 0 0 1-3.99-.07m101.2-2.61a4.4 4.4 0 0 1-1.85-3.71c0-2.34 1.3-3.9 3.42-4.1 1.63-.16 2.82.5 3.67 2.01 1.57 2.8-.25 6.4-3.25 6.4-.72 0-1.42-.22-1.99-.6m-79.85-2.78c1.51-1.62 1.7-2.9.47-3.15-.95-.19-1.84-1.22-1.84-2.12s1.12-1.94 2.09-1.94c2.95 0 3.09 4.55.2 7.02-1.27 1.1-1.88 1.22-.92.19m-11-2.98c.1-.77-.63-2.59-4.52-11.1-2.56-5.6-4.95-10.5-5.31-10.87-.36-.38-.58-.77-.48-.86.25-.25 5.12-.23 5.11.01 0 .11-.17.42-.37.68-.54.7-.71.26 5.81 14.74a20 20 0 0 0 1.4 2.7c.47.56.23 1.56-.98 4.04-.7 1.42-.76 1.49-.65.66m-24.5-.36c-3.24-.7-6.29-3.23-7.42-6.13-.9-2.33-1.04-6.59-.3-9.04a10.7 10.7 0 0 1 5.45-6.67c2.28-1.07 2.44-.95.78.59-2.31 2.14-3.02 3.75-3.37 7.66-.47 5.29.39 8.7 2.78 11.1a7 7 0 0 0 4.78 2.27c.84.07 1.46.22 1.38.35-.2.32-2.33.25-4.08-.13m-33.76-.98.68-.81V143c0-14.08 0-14.23-.56-14.94-.3-.39-.5-.77-.43-.84s.98-.2 2.02-.29c1.5-.12 1.89-.08 1.92.21.02.2.01 3.23-.01 6.72-.03 3.85.05 6.5.21 6.74.14.21.3.33.35.27 1.26-1.72 1.6-2.13 1.71-2.02.08.08-.23.6-.69 1.16a8 8 0 0 0-1.13 1.94c-.33 1-.6 13.2-.33 14.88.1.55.42 1.24.72 1.52.55.51.54.51-2.3.51h-2.85zm16.84.13.64-.68.08-7.55c.1-8.66-.05-9.81-1.41-11.4-1.23-1.44-2.77-2.01-4.94-1.85-.91.07-1.9.22-2.2.34q-.55.22-.26-.09a7 7 0 0 1 1.98-.73c3.84-.98 7.75.4 9.17 3.26.44.9.5 1.87.63 9.63.12 8.02.16 8.68.63 9.2l.5.55h-5.46zm23.66.17A10.7 10.7 0 0 0 77 153.9c.4-.83.77-1.36.83-1.18.19.57-1.15 3.12-2.18 4.15-1 1-2.96 2.02-3.8 1.99-.24-.01.04-.24.62-.5m111.13-4.45c.17-1.15 1.08-9.36 2.39-21.5l1.96-17.99c.42-3.85.9-7.35 1.06-7.77a4.95 4.95 0 0 1 4.93-3.33c2.88-.01 5.07 2.17 4.78 4.77-.08.66-1.88 6.5-4.01 12.96-5.4 16.37-7.13 21.74-8.36 25.9-2.16 7.3-2.38 7.96-2.63 7.96-.15 0-.2-.43-.12-1m-91.14.33c0-.14.11-.44.25-.66s.26-.27.26-.13-.12.44-.26.66q-.23.34-.25.13m2.38-5.82c0-.14.11-.44.25-.66q.24-.34.26-.13c0 .15-.11.44-.26.66q-.23.34-.25.13m-20.12-3.1-.07-2.32c-.05-1.91-.17-2.43-.79-3.48-.4-.68-1.22-1.67-1.83-2.19-.85-.72-.99-.94-.6-.94 1.01 0 3.18 1.27 4.37 2.54a7.6 7.6 0 0 1 2.18 5.02l.05 1.3-1.66.08c-.9.04-1.65.04-1.65 0m23.72-6.43c.12-1.04.06-1.41-.27-1.69-.76-.63-.46-.82 1.29-.82 1.83 0 2.13.23 1.05.8a5 5 0 0 0-1.44 1.7l-.78 1.34z" style="fill:#909090" transform="translate(-6.16 11.48)"/><path d="M137.38 172.89a29.4 29.4 0 0 1-18.24-8.92 29.6 29.6 0 0 1-7.07-11.98c-1.26-3.97-1.48-5.54-1.49-10.85 0-5.35.27-7.22 1.74-11.9a48 48 0 0 1 5.72-11.39c2-2.83 7.29-8.25 9.79-10.05a44 44 0 0 1 18.72-7.86 47 47 0 0 1 14.42.3c1.96.37 4.07.68 4.68.68s1.18.12 1.27.26c.16.27-.6 13.52-.79 13.71-.05.06-.18-.47-.28-1.18-1.13-8.2-5.2-12.35-13.06-13.3-5.83-.72-12.38 1.26-17.88 5.4a37 37 0 0 0-14.57 24.12c-1.35 8.77.66 22.24 4.5 30.16 4.87 10 13.39 14.1 23.62 11.35 8.36-2.25 14.04-8.07 15.58-15.96.45-2.3.52-10.32.12-12.8-.6-3.68-2.48-5.23-6.37-5.25q-1.44-.01-1.06-.24c.6-.34 19.73-5.84 20.29-5.84.3 0 .04.29-.72.76a10.2 10.2 0 0 0-4.22 5.24c-.63 2.04-.67 4.33-.25 13.98.15 3.56.18 6.63.07 6.83-.22.37-2.19 1.94-7.93 6.32-8.1 6.18-17.8 9.25-26.59 8.4m-56.19-4.9-1-.25c-.4-.08-.97-.4-1.26-.68-.48-.49-.5-.6-.14-1.27.73-1.42 1.1-1.53 2.32-.68.92.64 1.36.77 2.73.77 1.33 0 1.82-.14 2.73-.74.6-.4 1.1-.63 1.1-.52 0 .4-1.95 2.22-2.89 2.7-.91.46-3.05.86-3.59.68m99.88-2.84a4.4 4.4 0 0 1-1.85-3.71c0-2.34 1.3-3.9 3.42-4.1 1.63-.16 2.82.5 3.67 2.01 1.57 2.8-.25 6.4-3.25 6.4-.72 0-1.42-.22-1.99-.6m-78.69-4.06c.1-.42.23-.82.27-.87.26-.3-.51-1.04-1.22-1.18-.59-.12-.91-.4-1.17-1.02-.6-1.43.16-2.6 1.7-2.6 1.39 0 2.12.86 2.12 2.48 0 1.29-.67 2.96-1.45 3.6-.4.33-.42.29-.25-.4m-70.53-2.46c0-.13.18-.38.4-.56.34-.28.4-2.3.4-15.1 0-9.56-.1-14.82-.27-14.93a.7.7 0 0 1-.27-.5c0-.4 2.9-.8 3.25-.46.12.12.21 6.99.21 15.26 0 12.54.06 15.15.37 15.63.21.31.3.64.22.73-.26.26-4.31.2-4.31-.07m16.94.04c0-.11.18-.43.4-.72.32-.42.39-1.9.39-8.56 0-5.6-.1-8.39-.33-9.14-.45-1.52-1.94-2.9-3.8-3.56l-1.56-.54 1.48-.02c2.98-.04 5.3 1.18 6.38 3.38.59 1.2.6 1.48.69 9.7.04 4.8.19 8.57.33 8.72.7.7.22.93-1.87.93-1.17 0-2.11-.08-2.11-.2m14.62-.58c-3.8-1.8-5.9-5.43-5.9-10.2a12 12 0 0 1 3.07-8.33c1.3-1.4 2.43-2.2 3.55-2.52.59-.17.54-.07-.42.96-2.12 2.25-2.88 4.23-3.17 8.22-.39 5.46 1.33 9.64 4.9 11.9 1.16.73 1.16.74.4.74a8 8 0 0 1-2.43-.77m26.89-.06c-.18-.34-2.33-5-4.77-10.38-2.45-5.37-4.7-10.02-5-10.35l-.55-.58 1.6-.17a10 10 0 0 1 2.38 0c.69.13.75.22.51.68-.15.28-.2.8-.12 1.15.16.66 5.75 13.18 7.02 15.75l.74 1.48-.58 1.35c-.72 1.72-.83 1.82-1.23 1.07m-15.85-.59c0-.05.2-.26.46-.46q.61-.51.1.1-.54.68-.56.36m109.61-6.05c.09-1.2.29-3.23.44-4.51.3-2.4.91-8.01 1.35-12.22.13-1.31.66-6.2 1.17-10.85 2.01-18.52 1.84-17.5 3.28-18.95 3.02-3.02 8.23-1.25 8.24 2.79 0 1.36-.25 2.17-6.88 22.24a664 664 0 0 0-6.74 21.37 10 10 0 0 1-.85 2.31c-.09 0-.1-.98 0-2.18m-109.09-6.35-.1-1.92a8 8 0 0 0-2.18-5.43c-.93-1.03-.96-1.11-.36-.93a9 9 0 0 1 3.69 2.46 9 9 0 0 1 1.87 4.84v1.05h-1.46a8 8 0 0 1-1.46-.07m23.51-7.47c-.23-.5-.35-.98-.27-1.05.23-.23 2.12-.16 2.27.08.08.12-.25.6-.72 1.05l-.86.84z" style="fill:#fd9d0f" transform="translate(-6.16 11.48)"/><path d="M137.38 172.89a29.4 29.4 0 0 1-18.24-8.92 29.6 29.6 0 0 1-7.07-11.98c-1.26-3.97-1.48-5.54-1.49-10.85 0-5.35.27-7.22 1.74-11.9a48 48 0 0 1 5.72-11.39c2-2.83 7.29-8.25 9.79-10.05a44 44 0 0 1 18.72-7.86 47 47 0 0 1 14.42.3c1.96.37 4.07.68 4.68.68s1.18.12 1.27.26c.16.27-.6 13.52-.79 13.71-.05.06-.18-.47-.28-1.18-1.13-8.2-5.2-12.35-13.06-13.3-5.83-.72-12.38 1.26-17.88 5.4a37 37 0 0 0-14.57 24.12c-1.35 8.77.66 22.24 4.5 30.16 4.87 10 13.39 14.1 23.62 11.35 8.36-2.25 14.04-8.07 15.58-15.96.45-2.3.52-10.32.12-12.8-.6-3.68-2.48-5.23-6.37-5.25q-1.44-.01-1.06-.24c.6-.34 19.73-5.84 20.29-5.84.3 0 .04.29-.72.76a10.2 10.2 0 0 0-4.22 5.24c-.63 2.04-.67 4.33-.25 13.98.15 3.56.18 6.63.07 6.83-.22.37-2.19 1.94-7.93 6.32-8.1 6.18-17.8 9.25-26.59 8.4m-56.19-4.9-1-.25c-.4-.08-.97-.4-1.26-.68-.48-.49-.5-.6-.14-1.27.73-1.42 1.1-1.53 2.32-.68.92.64 1.36.77 2.73.77 1.33 0 1.82-.14 2.73-.74.6-.4 1.1-.63 1.1-.52 0 .4-1.95 2.22-2.89 2.7-.91.46-3.05.86-3.59.68m21.2-6.9c.1-.42.22-.82.26-.87.26-.3-.51-1.04-1.22-1.18-.59-.12-.91-.4-1.17-1.02-.6-1.43.16-2.6 1.7-2.6 1.39 0 2.12.86 2.12 2.48 0 1.29-.67 2.96-1.45 3.6-.4.33-.42.29-.25-.4m-70.54-2.46c0-.13.18-.38.4-.56.34-.28.4-2.3.4-15.1 0-9.56-.1-14.82-.27-14.93a.7.7 0 0 1-.27-.5c0-.4 2.9-.8 3.25-.46.12.12.21 6.99.21 15.26 0 12.54.06 15.15.37 15.63.21.31.3.64.22.73-.26.26-4.31.2-4.31-.07m16.94.04c0-.11.18-.43.4-.72.32-.42.39-1.9.39-8.56 0-5.6-.1-8.39-.33-9.14-.45-1.52-1.94-2.9-3.8-3.56l-1.56-.54 1.48-.02c2.98-.04 5.3 1.18 6.38 3.38.59 1.2.6 1.48.69 9.7.04 4.8.19 8.57.33 8.72.7.7.22.93-1.87.93-1.17 0-2.11-.08-2.11-.2m14.62-.58c-3.8-1.8-5.9-5.43-5.9-10.2a12 12 0 0 1 3.07-8.33c1.3-1.4 2.43-2.2 3.55-2.52.59-.17.54-.07-.42.96-2.12 2.25-2.88 4.23-3.17 8.22-.39 5.46 1.33 9.64 4.9 11.9 1.16.73 1.16.74.4.74a8 8 0 0 1-2.43-.77m26.89-.06c-.18-.34-2.33-5-4.77-10.38-2.45-5.37-4.7-10.02-5-10.35l-.55-.58 1.6-.17a10 10 0 0 1 2.38 0c.69.13.75.22.51.68-.15.28-.2.8-.12 1.15.16.66 5.75 13.18 7.02 15.75l.74 1.48-.58 1.35c-.72 1.72-.83 1.82-1.23 1.07m-15.85-.59c0-.05.2-.26.46-.46q.61-.51.1.1-.54.68-.56.36m109.61-6.05c.09-1.2.29-3.23.44-4.51.3-2.4.91-8.01 1.35-12.22.13-1.31.66-6.2 1.17-10.85 2.01-18.52 1.84-17.5 3.28-18.95 3.02-3.02 8.23-1.25 8.24 2.79 0 1.36-.25 2.17-6.88 22.24a664 664 0 0 0-6.74 21.37 10 10 0 0 1-.85 2.31c-.09 0-.1-.98 0-2.18m-109.09-6.35-.1-1.92a8 8 0 0 0-2.18-5.43c-.93-1.03-.96-1.11-.36-.93a9 9 0 0 1 3.69 2.46 9 9 0 0 1 1.87 4.84v1.05h-1.46a8 8 0 0 1-1.46-.07m23.51-7.47c-.23-.5-.35-.98-.27-1.05.23-.23 2.12-.16 2.27.08.08.12-.25.6-.72 1.05l-.86.84z" style="fill:#6f6f6f" transform="translate(-6.16 11.48)"/><path d="M135.2 172.47c-10.82-1.96-19.43-9.54-22.9-20.19-1.26-3.85-1.67-6.59-1.67-11.27 0-6.07 1.07-10.88 3.76-16.68 3.33-7.22 10.4-14.88 17.6-19.12 3.96-2.33 10.2-4.54 13.95-4.95 1.14-.12.94-.03-1.11.52-10.13 2.7-19.66 12.27-23.25 23.36-1.32 4.05-1.72 7-1.7 12.37.06 10.83 2.8 21.47 7.1 27.54a24 24 0 0 0 6.97 6.29c2.07 1.09 5.3 2 7.15 2.04a6 6 0 0 1 1.74.24c.89.38-5.36.26-7.63-.15m15.87-1.67c6.43-2.53 11.08-7.59 12.81-13.92 1.16-4.24.98-14.08-.3-16.59a5 5 0 0 0-4.52-2.84c-1.61-.03-1.4-.49.5-1.04l9.11-2.66c4.02-1.18 7.45-2.14 7.63-2.14s-.25.46-.96 1.01a9 9 0 0 0-3.77 6.53c-.13.9-.1 5.4.05 10.31l.27 8.73-.74.54c-.4.29-2.35 1.83-4.33 3.42-5.88 4.72-9.5 6.86-14.44 8.53-3.19 1.07-3.88 1.14-1.31.12m-71.27-3.34c-1.11-.48-1.28-.97-.69-1.97.55-.93.94-1 1.91-.3.39.27 1.2.63 1.82.8.93.25 1.35.22 2.58-.2.8-.27 1.46-.4 1.46-.29 0 .4-1.9 1.76-2.89 2.06a7 7 0 0 1-4.19-.1m22.9-7.32c-.06-.68-.24-.89-.96-1.13-1.64-.55-2.12-1.97-1.02-3.01 1.34-1.26 3.37-.22 3.35 1.73 0 .9-.83 3.25-1.15 3.25-.07 0-.17-.38-.21-.84m-70.24-1.44c-.23-.1-.2-.37.08-1.05.32-.77.37-3.17.3-15.13a512 512 0 0 0-.21-14.74c-.1-.47.04-.54 1.17-.62.72-.04 1.4.03 1.53.16.13.12.23 6.96.23 15.25 0 9.16.1 15.2.26 15.5.19.36.15.52-.16.64-.48.18-2.74.17-3.2-.01m16.95 0c-.21-.09-.18-.44.09-1.23.31-.9.37-2.6.3-8.92-.1-7.42-.13-7.86-.68-8.9-.67-1.26-2.18-2.67-3.12-2.9-1.19-.3-.72-.68.6-.49 2.66.39 4.78 2.01 5.36 4.08.14.51.26 4.38.26 8.6 0 4.26.12 8.09.26 8.59.2.67.18.96-.06 1.12a7 7 0 0 1-3 .05m13.66-.91c-2.94-1.62-4.5-3.83-5.19-7.32-.93-4.75.9-9.97 4.3-12.21 1.64-1.09 1.88-1.04.92.17a11.5 11.5 0 0 0-2.4 5.67c-.88 6.67.44 11.13 4.05 13.75.94.68.98.75.41.75a7 7 0 0 1-2.1-.81m27.04-.42c-.29-.56-2.27-4.89-4.41-9.62s-4.18-9.1-4.53-9.7a8 8 0 0 1-.64-1.27c0-.09.87-.13 1.92-.09l1.92.08-.08.93c-.06.7.48 2.19 2.29 6.22 2.16 4.83 3.86 8.55 4.94 10.83.38.8.38.97-.04 2.03-.64 1.67-.8 1.74-1.37.6m93.98-5.65c.09-.65.28-2.32.42-3.7l.53-4.77c.15-1.23.57-5.1.93-8.6s.78-7.36.93-8.6.39-3.43.53-4.89c.95-9.58 1.57-13.95 2.12-15.1 1.4-2.9 5.9-3.43 8-.93.89 1.06 1.13 2.34.74 3.93-.18.69-2.56 8.1-5.31 16.47s-5.8 17.83-6.76 21.03c-1.76 5.86-2.42 7.45-2.13 5.16m-109.17-8.78c-.12-2.33-.5-3.34-1.83-4.96-.4-.5-.7-.96-.65-1.01.23-.23 2.2 1.02 3.12 1.96a7.7 7.7 0 0 1 2.13 4.76l.06 1.28-1.35.08-1.36.08zm23.68-5.5-.3-.8h2.17l-.76.8c-.41.43-.77.79-.78.79s-.16-.36-.33-.8m67.3-24.38c-.07-.2-.25-1.08-.42-1.95a16 16 0 0 0-1.04-3.17q-3.65-7.7-14.28-7.84l-2.3-.03 1.46-.26c2.36-.41 8.4-.05 13.23.8l4.37.77-.03.76c-.1 2.68-.7 11.1-.78 11.19-.06.06-.16-.06-.22-.27" style="fill:#505050" transform="translate(-6.16 11.48)"/><path d="M137.55 172.6a29 29 0 0 1-20.4-11.28 33.5 33.5 0 0 1-6.1-14.74c-.5-3.27-.35-9.59.3-12.72 2.65-12.72 11.68-24.32 23.31-29.91 2.24-1.08 6.82-2.76 7.5-2.76.17 0-.98.65-2.55 1.45-3.54 1.8-5.83 3.5-9.09 6.75-5.27 5.24-8.52 11.32-10.2 19.05-.4 1.82-.5 3.37-.49 8.2 0 5.36.08 6.36.76 10.05 1.43 7.9 3.72 14.1 6.6 17.9 3.18 4.2 7.74 7.09 12.1 7.66.72.1 1.3.28 1.3.4q-.02.21-.2.2a96 96 0 0 0-2.84-.24m17.9-3.94a21 21 0 0 0 6.97-7.78c1.95-3.95 2.12-4.92 2.12-12.07 0-7.25-.18-8.22-1.84-9.94-.91-.95-1.33-1.17-2.75-1.45-1.03-.2-1.55-.4-1.33-.53a763 763 0 0 1 16.77-4.92q.5-.13-.69 1.01a10 10 0 0 0-3.04 4.85c-.4 1.38-.43 2.36-.28 7.67.1 3.35.25 7.53.34 9.28.14 2.57.1 3.26-.2 3.5-7.2 5.89-11.42 8.87-15.1 10.65-2.97 1.43-3.38 1.32-.96-.27m-75.31-1.2-1.13-.39c-.28-.02.03-1.38.42-1.86l.48-.6 1.15.77a4 4 0 0 0 2.63.76c.8 0 1.77-.1 2.13-.24.6-.21.63-.2.28.22-1.1 1.33-4.16 2.02-5.96 1.35m22.78-7.64c-.13-.5-.4-.75-.95-.86-1.43-.29-2.16-1.87-1.33-2.87.47-.57 2.2-.51 2.74.08.53.6.57 2.8.07 3.72l-.35.63zm-70.28-1.75c.2-.36.26-5.28.2-15.58l-.07-15.06 1.17-.16c.64-.09 1.2-.12 1.26-.07.04.05.11 7.13.15 15.74l.07 15.66H33.9c-1.45 0-1.52-.03-1.25-.53m16.84.07c.37-.75.44-16.42.08-17.66a6 6 0 0 0-2.55-3.37q-1.8-1.07.75-.46c2 .48 3.77 2.28 4.16 4.25.16.79.32 5.09.36 9.56l.07 8.14H50.8c-1.38 0-1.52-.05-1.32-.46m13.59-.45a11.3 11.3 0 0 1-4.51-5.05c-.54-1.35-.63-2.05-.63-4.76 0-2.86.06-3.34.7-4.86.4-.92 1.15-2.2 1.66-2.83.98-1.2 2.45-2.38 2.67-2.16.08.08-.24.7-.7 1.38-1.17 1.72-1.78 3.87-1.98 6.93-.3 4.54.87 8.28 3.32 10.68q2.23 2.13-.53.67m27.44.2c-.09-.14-2.08-4.47-4.43-9.63a339 339 0 0 0-4.79-10.27c-.67-1.15-.4-1.4 1.35-1.3l1.4.08.05 1.06c.07 1.03.95 3.12 5.53 13.15 1.12 2.43 2.02 4.63 2.01 4.9-.01.67-.93 2.32-1.12 2.01m93.74-6.32c0-.14 1.36-12.54 2.13-19.43l2.24-20.58c.2-1.94.5-3.99.66-4.56.6-2.21 2.98-3.68 5.4-3.32 2.22.34 3.59 1.85 3.59 3.97 0 1.35-.25 2.16-6.74 21.85a725 725 0 0 0-6.34 19.9c-.6 1.98-.94 2.78-.94 2.17m-108.68-6.64c-.18-.07-.33-.58-.33-1.16 0-1.78-.55-3.67-1.46-5.02-1.19-1.77-.55-1.75 1.34.04 1.81 1.72 3.09 4.89 2.41 5.99-.2.32-1.32.41-1.96.15m23.13-7.6q-.27-.7.66-.69c.56 0 .62.28.17.74-.42.42-.65.4-.83-.05m66.9-26.64c-.26-1.52-1.79-4.44-3.11-5.94a14.6 14.6 0 0 0-9.02-4.52q-1.53-.18-1.19-.41c.52-.34 4.6 0 8.84.72 2.05.36 4.18.65 4.73.65h1l-.17 2.97c-.34 5.95-.5 7.6-.7 7.6-.11 0-.29-.47-.39-1.07" style="fill:#2e2e2e" transform="translate(-6.16 11.48)"/><path d="M135.2 172.2a29.2 29.2 0 0 1-18.07-11.16c-5.55-7.37-7.59-17.6-5.5-27.67 2.46-11.95 11.38-23.42 22.57-29.02 2.34-1.17 5.6-2.45 5.78-2.27.07.06-.69.54-1.68 1.07-2.52 1.32-5.09 3.31-7.9 6.1a38 38 0 0 0-10.35 19.8c-.73 3.97-.6 11.66.28 16.9 1.56 9.24 3.79 15.1 7.48 19.66a20 20 0 0 0 9.4 6.35c.85.24 1.53.49 1.53.55 0 .2-1.4.08-3.53-.31m20.2-3.22c4.54-3.2 7.4-7.16 8.8-12.12.52-1.87.58-2.73.6-8.05 0-6.59-.26-8.17-1.64-9.8a5.8 5.8 0 0 0-3.5-1.84q-.61-.01-.4-.24c.28-.26 14.84-4.53 15.45-4.52.23 0-.13.53-.83 1.25-2.74 2.84-2.95 4.06-2.56 15.54.3 8.57.28 9-.17 9.26a95 95 0 0 0-4.08 3.15c-4.96 3.97-9.17 6.73-11.53 7.55l-.8.28zm-75.6-1.78c-.97-.42-1.05-.79-.36-1.69l.48-.63 1.3.76c1.05.61 1.59.75 2.85.74 1.38-.02 1.5.02 1.08.33-1.22.9-3.87 1.13-5.35.5m23.16-7.75q-.14-.52-1.1-.7c-1.45-.27-1.94-1.55-.96-2.53 1.3-1.3 3.07 0 2.84 2.07-.15 1.32-.57 1.95-.78 1.16m-70.03-1.85c.26-.75.24-28.9-.02-29.7-.1-.3.11-.39 1.06-.39h1.19v15.08c0 8.3.1 15.23.21 15.41.16.26-.14.34-1.24.34h-1.46zm16.95-.2c.15-.57.23-4.18.18-8.8-.08-7.62-.1-7.9-.7-9.12a8 8 0 0 0-1.6-2.08l-.96-.82.8.18a5.3 5.3 0 0 1 3.67 2.86c.67 1.38.67 1.39.74 10.05l.08 8.67h-2.47zm12.45-.4c-3.2-2.13-4.42-4.91-4.24-9.72.09-2.54.19-3.03.96-4.69.77-1.62 2.73-4.1 3.26-4.1.1 0-.23.8-.74 1.8-1 1.95-1.39 4.02-1.4 7.5-.02 3.86.98 6.86 2.96 8.89.6.61 1.03 1.18.95 1.26s-.87-.34-1.75-.93m24.57-7.33a530 530 0 0 0-4.7-10.18 33 33 0 0 1-1.14-2.45c0-.07.64-.14 1.43-.14h1.43v.92c0 .62 1.27 3.71 3.86 9.41 3.83 8.45 3.85 8.5 3.48 9.4-.21.5-.48.91-.6.91s-1.8-3.54-3.76-7.87m97.62.53c0-.11.24-2.16.52-4.56s.83-7.29 1.2-10.85a933 933 0 0 1 1.45-13.36c.7-6.83 1.57-14.09 1.74-14.56a5.4 5.4 0 0 1 2.39-2.67c1.98-.83 4.61-.25 5.69 1.26 1.25 1.76 1.32 1.49-4.26 18.35a1260 1260 0 0 0-7.94 24.67c-.48 1.67-.8 2.37-.8 1.72M75.2 142.8c-.1-2-.36-2.8-1.43-4.43l-.51-.78.88.52c1.72 1 3 3.1 3.35 5.47l.2 1.26h-2.4Zm23.72-5.63c-.09-.15.03-.27.27-.27.23 0 .35.12.26.27-.09.14-.2.26-.26.26s-.18-.12-.27-.26m66.67-27.01c-.38-1.75-2.01-4.55-3.53-6.05a14.5 14.5 0 0 0-6.39-3.65l-1.98-.6 2.38.15c1.31.09 3.55.38 4.98.66 1.43.27 3.3.57 4.18.67 1.45.17 1.58.23 1.46.74-.08.3-.22 2.29-.32 4.4-.2 4.06-.44 5.24-.78 3.68" style="fill:#161616" transform="translate(-6.16 11.48)"/><path d="M132.71 171.42c-6.5-1.92-11.6-5.41-15.45-10.56-2.74-3.67-4.54-7.8-5.65-12.98-.7-3.27-.65-10.55.1-14.07a43.6 43.6 0 0 1 18.62-26.99c2.39-1.57 7.02-3.94 7.25-3.7.06.05-.46.45-1.15.88a49 49 0 0 0-7.68 6.64 38.4 38.4 0 0 0-8.93 18.86c-.6 3.55-.6 9.9 0 14.17 2.06 14.96 6.57 23.44 14.55 27.38 1.73.85 1.98 1.04 1.33 1.03a17 17 0 0 1-2.99-.66m25.55-4.48c3.9-3.57 6.09-8.02 6.65-13.56.31-3.06-.04-11.05-.55-12.64-.46-1.43-2.29-3.22-3.5-3.45-.53-.1-.95-.26-.95-.35 0-.1 1.22-.51 2.71-.94 1.5-.42 4.67-1.34 7.06-2.05s4.4-1.22 4.46-1.16c.07.07-.37.68-.98 1.37a8 8 0 0 0-1.66 3.1c-.54 1.78-.55 2.18-.38 9.55.1 4.23.25 8.41.33 9.3.12 1.2.07 1.7-.2 1.92-.7.58-5.4 4.3-7.38 5.84a46 46 0 0 1-6.37 4.13c-.72.36-.58.16.76-1.06m-78.46-.02c-.68-.48-.7-.6-.22-1.25.34-.45.43-.44 1.62.2.81.43 1.7.67 2.48.68 1.19 0 1.2.02.56.38-.91.52-3.7.51-4.44-.01m22.96-8.07a5 5 0 0 0-1.12-.37q-.73-.14-.9-.85c-.23-.91.17-1.52 1.07-1.63 1.04-.12 1.74.61 1.74 1.83 0 1.1-.2 1.35-.8 1.02M33.3 142.99v-15.35h1.72l.07 7.21c.03 3.97.03 10.87 0 15.35l-.08 8.14H33.3zm16.8 6.47c0-9.64-.05-10.03-1.51-11.56-.55-.58-.6-.73-.26-.73.66 0 2.26 1.53 2.89 2.75.52 1.03.55 1.51.58 9.75l.02 8.67H50.1zm11.65 6.92c-2.21-1.75-3.37-4.22-3.63-7.74-.17-2.21.2-4.06 1.26-6.31.7-1.5 2.37-3.5 2.37-2.85a.6.6 0 0 1-.26.46c-.58.36-1.36 3.8-1.51 6.62-.23 4.2.55 7.09 2.73 10.12.58.82.36.75-.96-.3m27.91-1.09c-.54-1.16-1.73-3.78-2.64-5.82s-2.56-5.64-3.66-8l-1.98-4.3h1.16c1.09 0 1.17.05 1.17.7 0 .72.84 2.71 5.22 12.37 2.46 5.43 2.5 5.55 2.11 6.35l-.4.82zm95.47-8.46 1.23-11.51 1.19-10.98c1.98-18.35 1.96-18.24 3.47-19.43 2.1-1.65 5.48-1.1 6.6 1.07.33.62.41 1.23.3 2.2-.08.74-2.4 8.19-5.17 16.55-2.76 8.37-5.58 17.06-6.27 19.32a63 63 0 0 1-1.38 4.23c-.07.07-.06-.58.03-1.45m-109.68-4.04c-.07-.99-.38-2.36-.69-3.05l-.55-1.25.62.46c.9.68 1.72 1.97 2.15 3.4.59 1.95.52 2.23-.51 2.23h-.9zm89.96-33.86a15.4 15.4 0 0 0-3.78-5.57c-1.1-.98-2.21-1.6-5.16-2.93-.56-.25-.43-.28.8-.15.8.08 2.7.37 4.22.65 1.53.27 3.26.53 3.84.57l1.06.08-.1 1.85c-.05 1.02-.17 2.97-.26 4.32l-.17 2.47z" style="fill:#010101" transform="translate(-6.16 11.48)"/></svg>