<?xml version="1.0" encoding="UTF-8" standalone="no"?>
<!-- Created with Inkscape (http://www.inkscape.org/) -->

<svg
   width="210mm"
   height="297mm"
   viewBox="0 0 210 297"
   version="1.1"
   id="svg1"
   xml:space="preserve"
   inkscape:version="1.4.2 (ebf0e940, 2025-05-08)"
   sodipodi:docname="hey_g_logo.svg"
   xmlns:inkscape="http://www.inkscape.org/namespaces/inkscape"
   xmlns:sodipodi="http://sodipodi.sourceforge.net/DTD/sodipodi-0.dtd"
   xmlns="http://www.w3.org/2000/svg"
   xmlns:svg="http://www.w3.org/2000/svg"><sodipodi:namedview
     id="namedview1"
     pagecolor="#ffffff"
     bordercolor="#000000"
     borderopacity="0.25"
     inkscape:showpageshadow="2"
     inkscape:pageopacity="0.0"
     inkscape:pagecheckerboard="0"
     inkscape:deskcolor="#d1d1d1"
     inkscape:document-units="mm"
     inkscape:zoom="0.42792196"
     inkscape:cx="74.77999"
     inkscape:cy="601.74524"
     inkscape:window-width="1472"
     inkscape:window-height="740"
     inkscape:window-x="0"
     inkscape:window-y="39"
     inkscape:window-maximized="0"
     inkscape:current-layer="layer1" /><defs
     id="defs1" /><g
     inkscape:label="Layer 1"
     inkscape:groupmode="layer"
     id="layer1"><g
       id="g30"
       transform="translate(-6.1609721,11.482163)"><path
         style="fill:#e8e8e8"
         d="m 136.42503,173.41763 c -13.64007,-1.92592 -23.71848,-12.07565 -26.1489,-26.33393 -0.54953,-3.22392 -0.39458,-10.55427 0.28789,-13.61912 1.25339,-5.62874 3.80234,-11.45998 6.93928,-15.875 2.05582,-2.89344 7.29701,-8.28248 9.96227,-10.24331 5.39915,-3.97215 11.73828,-6.68734 18.55069,-7.945665 3.88294,-0.71722 10.71684,-0.588052 15.32275,0.289616 2.0246,0.385789 4.20123,0.701439 4.83695,0.701439 0.78789,0 1.20478,0.12747 1.30952,0.40041 0.17917,0.46693 -0.64292,17.13614 -0.87495,17.7408 -0.0891,0.23216 -0.39816,0.37311 -0.71805,0.32747 -0.52982,-0.0756 -0.57076,-0.27497 -0.72274,-3.51972 -0.22948,-4.89958 -0.78047,-6.72494 -2.87857,-9.53632 -1.23389,-1.65337 -3.33857,-3.12793 -5.72353,-4.00997 -2.4925,-0.92182 -7.20781,-1.14322 -10.43232,-0.48986 -9.88218,2.00239 -19.28659,10.69598 -23.35338,21.58824 -1.72303,4.61486 -2.14545,7.29596 -2.14506,13.61458 3.1e-4,4.86449 0.0902,6.06982 0.72196,9.68125 2.7855,15.923 8.77905,23.94307 18.96888,25.38258 5.04106,0.71215 12.15632,-1.44102 16.5684,-5.01383 2.89057,-2.34072 5.30644,-6.15708 6.37712,-10.07396 0.38829,-1.4205 0.4701,-2.80186 0.4701,-7.9375 v -6.21771 l -0.79375,-1.57529 c -1.47796,-2.9332 -3.71794,-3.30606 -9.74907,-1.62279 -1.86949,0.52177 -3.5066,0.88221 -3.63802,0.80099 -0.45797,-0.28304 -0.23468,-1.18798 0.35636,-1.44424 0.32743,-0.14196 5.53641,-1.68161 11.57552,-3.42145 6.03912,-1.73983 12.66793,-3.66135 14.73071,-4.27004 2.06277,-0.60869 3.938,-1.03476 4.16718,-0.94681 0.72925,0.27983 0.44985,0.96441 -0.57549,1.41006 -5.47494,2.37963 -6.98156,4.0057 -7.63563,8.241 -0.0968,0.62709 -0.023,5.14836 0.16401,10.04726 l 0.3401,8.90709 -0.8712,0.66836 c -0.47917,0.3676 -2.37204,1.86469 -4.20638,3.32686 -1.83434,1.46218 -4.10908,3.20565 -5.05496,3.87437 -4.04913,2.86268 -10.19137,5.55155 -14.99124,6.56268 -2.95455,0.6224 -8.58825,0.89125 -11.13645,0.53146 z m -56.505972,-5.1307 c -1.195222,-0.44533 -2.033007,-1.14631 -2.033007,-1.70105 0,-0.21932 0.302675,-0.91524 0.672612,-1.54649 0.797512,-1.36086 1.368481,-1.45542 2.799559,-0.46369 1.970768,1.36575 4.250125,0.9883 5.904432,-0.97773 0.780548,-0.92763 2.529647,-4.249 2.529647,-4.80356 0,-0.39377 -8.811603,-19.84988 -9.389144,-20.73132 -0.205764,-0.31403 -0.826523,-0.67796 -1.379465,-0.80873 -0.741786,-0.17543 -1.005349,-0.37388 -1.005349,-0.757 0,-0.49557 0.205049,-0.51924 4.497916,-0.51924 4.463066,0 4.498572,0.005 4.582465,0.59531 0.07088,0.49907 -0.03858,0.59532 -0.677035,0.59532 -0.41887,0 -0.980081,0.15977 -1.247136,0.35504 -0.460256,0.33655 -0.406808,0.53298 1.025888,3.77031 3.919152,8.85575 5.549802,12.27879 5.752672,12.07592 0.420036,-0.42004 6.041271,-14.62704 6.041271,-15.26859 0,-0.53862 -0.162521,-0.67113 -0.992187,-0.80902 -1.516402,-0.25202 -1.699935,-0.34936 -1.603431,-0.85047 0.07986,-0.41469 0.467254,-0.46382 3.657575,-0.46382 3.306579,0 3.568249,0.0362 3.568249,0.49376 0,0.34477 -0.35927,0.62421 -1.19062,0.92604 -1.437484,0.52191 -1.450766,0.54615 -4.731822,8.63437 -1.298699,3.20146 -2.737194,6.7138 -3.196655,7.80521 -0.459461,1.0914 -1.18574,2.87734 -1.613953,3.96875 -2.202009,5.61236 -4.368891,8.81147 -6.792337,10.02795 -1.465,0.73537 -3.859798,0.94467 -5.180145,0.45273 z m 102.245322,-2.03655 c -2.75137,-0.5819 -4.46352,-4.43651 -3.1225,-7.02975 0.92129,-1.78159 3.02275,-2.87576 4.76743,-2.48227 2.35347,0.53079 4.15312,3.29854 3.63736,5.59403 -0.63253,2.81515 -2.82116,4.43851 -5.28229,3.91799 z M 99.846468,163.3519 c 0,-0.29687 0.476252,-0.99281 1.058332,-1.54654 1.29455,-1.23147 1.38718,-2.01512 0.26474,-2.23961 -1.04014,-0.20802 -1.930155,-1.58616 -1.726145,-2.67283 0.187036,-0.99625 1.056545,-1.92424 1.996395,-2.13066 0.95187,-0.20907 2.50228,0.44372 2.93474,1.23565 0.59165,1.08346 0.39268,3.16578 -0.45054,4.71505 -1.21304,2.22874 -4.077522,4.08261 -4.077522,2.63894 z m -34.1914,-3.84041 c -4.490618,-1.08857 -7.513004,-4.14809 -8.421681,-8.52516 -0.504799,-2.43161 -0.197387,-6.19045 0.683967,-8.36314 1.963602,-4.8406 7.233887,-7.87762 12.264508,-7.06746 4.417419,0.7114 7.395212,3.42606 8.225054,7.49823 0.363123,1.78189 0.211311,2.46519 -0.595774,2.68156 -0.322602,0.0865 -4.17873,0.15888 -8.569173,0.16086 l -7.982623,0.004 -0.166205,0.75672 c -0.241405,1.09911 0.274366,4.73856 0.913696,6.44732 0.662447,1.77055 2.318612,3.72861 3.787596,4.47803 2.300378,1.17357 5.78039,0.88283 7.95713,-0.66477 1.520389,-1.08096 2.217271,-1.98045 2.970849,-3.83459 0.489119,-1.20345 0.725049,-1.49417 1.212564,-1.49417 0.343832,0 0.640411,0.18238 0.686602,0.42223 0.163099,0.84691 -1.052138,3.41486 -2.242634,4.73898 -2.480035,2.7584 -6.483958,3.78953 -10.723876,2.76174 z m 8.673997,-16.72035 c -0.255172,-2.17635 -1.283898,-4.1689 -2.602374,-5.04057 -0.964073,-0.63737 -1.325922,-0.71412 -3.367045,-0.71412 -2.059668,0 -2.397645,0.0733 -3.401565,0.73789 -1.326378,0.87803 -2.732218,2.97342 -3.317728,4.94505 -0.232679,0.78351 -0.423052,1.46249 -0.423052,1.50884 0,0.0463 2.990281,0.0843 6.64507,0.0843 h 6.645069 z m -44.81483,16.01704 c 0.06636,-0.46483 0.309222,-0.63412 1.090998,-0.76047 0.553103,-0.0894 1.119677,-0.27657 1.259054,-0.41595 0.157021,-0.15702 0.227385,-5.7743 0.184985,-14.76765 l -0.06843,-14.51424 -1.17096,-0.28692 c -0.644028,-0.1578 -1.219253,-0.43501 -1.278277,-0.61601 -0.173289,-0.53142 0.998215,-0.81075 3.796614,-0.90528 l 2.621373,-0.0885 0.07084,6.58026 0.07084,6.58025 1.326674,-1.24095 c 4.969116,-4.64802 13.580186,-3.66683 15.18288,1.73002 0.336079,1.1317 0.414396,2.90146 0.414396,9.36428 0,5.84521 0.08461,8.05346 0.3175,8.28635 0.174625,0.17462 0.695827,0.3175 1.158228,0.3175 0.92719,0 1.68567,0.6486 1.258278,1.07599 -0.155931,0.15593 -2.103317,0.23079 -4.870349,0.18723 -4.409946,-0.0694 -4.610532,-0.0956 -4.610532,-0.60176 0,-0.42425 0.227411,-0.55952 1.14697,-0.68224 0.630833,-0.0842 1.257635,-0.32231 1.392892,-0.52916 0.14206,-0.21726 0.216369,-3.84014 0.175947,-8.57819 -0.07929,-9.29369 -0.142171,-9.61454 -2.143626,-10.93767 -0.918722,-0.60735 -1.33981,-0.70363 -3.067503,-0.70136 -1.720053,0.002 -2.20264,0.11305 -3.420447,0.78532 -1.526582,0.84271 -2.890408,2.26078 -3.658442,3.80395 -0.421973,0.84784 -0.488275,1.8274 -0.548798,8.1081 -0.03913,4.06045 0.03681,7.30607 0.175947,7.51985 0.134633,0.20685 0.760923,0.44498 1.391757,0.52916 0.919558,0.12272 1.146969,0.25799 1.146969,0.68224 0,0.50666 -0.200498,0.53224 -4.715566,0.60149 l -4.715567,0.0723 z m 153.683575,-3.24174 c -0.19976,-0.24071 -0.26131,-0.76742 -0.1623,-1.38906 0.28911,-1.81517 2.22236,-19.07465 2.80907,-25.07843 0.14221,-1.4552 0.38077,-3.65786 0.53014,-4.89479 0.14937,-1.23693 0.62394,-5.46364 1.05461,-9.39271 0.43066,-3.92906 0.9169,-7.6196 1.08054,-8.20121 0.5875,-2.08813 3.04492,-3.83438 5.39597,-3.83438 3.18337,0 5.8475,2.8416 5.28925,5.64159 -0.0919,0.46076 -1.89913,6.13603 -4.01615,12.61171 -6.13982,18.78091 -7.93433,24.42622 -9.37765,29.50104 -1.57186,5.52679 -1.81155,5.99045 -2.60348,5.03624 z"
         id="path41" /><path
         style="fill:#d8d8d8"
         d="m 135.12347,173.03965 c -10.83824,-2.05178 -19.4598,-9.46492 -23.10161,-19.86361 -1.45448,-4.15307 -1.90088,-6.88928 -1.92089,-11.77396 -0.0211,-5.15732 0.40577,-7.94381 1.90932,-12.46323 2.62434,-7.88829 7.23288,-14.52498 14.02993,-20.2043 5.19373,-4.33966 12.16303,-7.62591 19.19189,-9.049592 3.63823,-0.736919 11.94043,-0.676002 15.88622,0.116564 1.61219,0.323828 3.66328,0.665288 4.558,0.758808 1.17295,0.1226 1.66516,0.29104 1.76443,0.60381 0.0757,0.23857 0.0265,1.62088 -0.1094,3.07179 -0.13588,1.45091 -0.31845,4.66209 -0.40569,7.13594 -0.22507,6.38211 -0.33718,7.27604 -0.91246,7.27604 -0.41736,0 -0.48859,-0.37896 -0.63409,-3.37344 -0.0902,-1.85539 -0.3353,-3.99781 -0.54476,-4.76093 -1.25924,-4.58775 -4.2807,-7.64379 -9.02852,-9.13183 -2.60079,-0.81512 -8.03131,-0.80131 -11.1125,0.0283 -7.88665,2.1234 -15.71559,8.80426 -20.2002,17.23794 -2.89981,5.45335 -4.10812,10.79291 -4.0714,17.99167 0.0474,9.29764 2.37916,19.36992 5.8838,25.41602 1.39438,2.40554 5.3239,6.41578 7.43584,7.58859 2.82924,1.57115 4.96524,2.05517 8.96759,2.03206 3.08835,-0.0178 3.89422,-0.11794 5.95312,-0.73951 6.41173,-1.93567 10.53211,-5.17685 13.23475,-10.41074 1.46195,-2.83117 2.01259,-5.40246 2.16892,-10.12809 0.24505,-7.40753 -0.51723,-10.60557 -2.81792,-11.8222 -1.69719,-0.8975 -3.6782,-0.8181 -7.80461,0.31283 -1.85837,0.50932 -3.49429,0.92604 -3.63538,0.92604 -0.14109,0 -0.21847,-0.26208 -0.17197,-0.58241 0.0757,-0.52149 0.79022,-0.78485 6.83142,-2.51797 3.71078,-1.06456 10.40265,-3.00513 14.87082,-4.31239 4.46817,-1.30725 8.37619,-2.37681 8.6845,-2.37681 1.11812,0 0.40623,0.84438 -1.22975,1.45862 -3.04478,1.14317 -4.91295,2.73752 -6.02574,5.14252 -0.53661,1.15974 -0.55712,1.58746 -0.55712,11.61988 v 10.41583 l -0.92604,0.68757 c -0.50933,0.37816 -2.41433,1.87404 -4.23334,3.32417 -7.16182,5.70948 -12.67458,8.54956 -19.57916,10.08687 -2.69232,0.59944 -9.80662,0.7603 -12.348,0.27919 z m -55.379895,-4.92917 c -1.651096,-0.6995 -1.93182,-1.49755 -1.051581,-2.98944 0.739749,-1.25378 1.214571,-1.36798 2.367072,-0.5693 3.024887,2.09625 5.804958,0.95261 7.903375,-3.25122 1.161356,-2.32658 1.18046,-2.64974 0.270035,-4.56794 -0.444939,-0.93745 -2.289571,-4.95753 -4.099181,-8.9335 -4.722159,-10.37525 -4.618636,-10.18832 -5.926957,-10.70224 -1.900967,-0.74672 -1.060698,-0.98643 3.457828,-0.98643 3.322924,0 4.217718,0.0743 4.217718,0.35021 0,0.19262 -0.446484,0.46051 -0.992187,0.59532 -0.722002,0.17835 -1.014555,0.40221 -1.074328,0.82204 -0.107166,0.75272 6.637388,15.95952 7.078403,15.95952 0.10973,0 0.379752,-0.44649 0.600048,-0.99219 4.502461,-11.15321 5.765148,-14.37159 5.765148,-14.69442 0,-0.52943 -0.486914,-0.88937 -1.5875,-1.17355 -1.708642,-0.44118 -0.94905,-0.73406 2.100489,-0.80992 3.420983,-0.0851 3.950673,0.008 3.453163,0.60758 -0.17973,0.21656 -0.54369,0.39375 -0.80879,0.39375 -0.26511,0 -0.78316,0.26789 -1.15122,0.59531 -0.635998,0.56578 -1.367079,2.27618 -8.756633,20.48658 -2.281892,5.62337 -4.077667,8.23273 -6.548393,9.5152 -1.016742,0.52775 -4.276027,0.74308 -5.216509,0.34464 z m 101.727445,-2.23941 c -1.72209,-0.93045 -2.76203,-2.5842 -2.77291,-4.40958 -0.0148,-2.48702 2.07864,-4.71358 4.43181,-4.71358 1.20091,0 3.07776,1.35959 3.72634,2.69936 0.71517,1.47736 0.71831,2.64245 0.011,4.10347 -1.07245,2.21537 -3.58833,3.29717 -5.39628,2.32033 z m -81.35997,-2.59475 c 0,-0.19291 0.30897,-0.6394 0.6866,-0.99218 0.68999,-0.64461 1.43007,-1.84889 1.43007,-2.32707 0,-0.14118 -0.35574,-0.33483 -0.79053,-0.43033 -1.81977,-0.39968 -2.415539,-2.52388 -1.08191,-3.85751 0.86326,-0.86326 1.75798,-0.983 2.90664,-0.389 1.41766,0.73309 1.72757,3.15688 0.66611,5.20953 -0.95648,1.84962 -3.81698,3.93791 -3.81698,2.78656 z m -35.280625,-4.12414 c -4.609028,-1.52117 -7.274592,-5.07079 -7.739936,-10.30693 -0.547212,-6.15735 3.613751,-11.96592 9.336768,-13.03384 5.141777,-0.95946 10.092101,1.62499 11.433953,5.96941 0.640113,2.07244 0.700381,3.13915 0.200784,3.55378 -0.237746,0.19731 -3.070578,0.31603 -8.665104,0.36313 l -8.311881,0.07 -0.07838,1.7923 c -0.209236,4.78458 1.889733,9.01154 5.187586,10.4469 1.52063,0.66185 4.622739,0.57124 6.339344,-0.18515 1.777334,-0.78315 3.72937,-2.88763 4.386876,-4.72946 0.356657,-0.99908 0.626059,-1.37146 0.992187,-1.37146 0.725672,0 0.642885,0.89624 -0.256616,2.77812 -0.930209,1.94613 -2.317285,3.35532 -4.218,4.28525 -1.970876,0.96426 -6.247012,1.14707 -8.607582,0.36798 z m 9.566995,-16.36104 c -0.126221,-2.07262 -0.721906,-3.46574 -2.021662,-4.72805 -2.399231,-2.3301 -7.173639,-1.67984 -9.308931,1.26784 -0.879391,1.21397 -1.849526,3.62399 -1.849526,4.59462 v 0.65153 h 6.644441 6.64444 z m -44.334806,16.42738 c -0.705222,-0.28457 -0.297744,-0.84217 0.744051,-1.01818 0.810016,-0.13685 1.135907,-0.34236 1.322917,-0.83423 0.331241,-0.87123 0.328284,-27.88961 -0.0031,-28.76134 -0.186036,-0.48931 -0.478018,-0.68272 -1.124479,-0.74483 -0.561297,-0.0539 -0.873196,-0.22527 -0.873196,-0.47966 0,-0.28666 0.437646,-0.44703 1.5875,-0.58172 0.873125,-0.10228 2.036476,-0.24061 2.585223,-0.30741 1.766181,-0.215 1.780402,-0.15808 1.780402,7.12538 v 6.46416 l 0.940008,-1.04048 c 1.266826,-1.40222 3.097065,-2.52774 4.999951,-3.07475 2.929163,-0.84203 7.02221,-0.12596 8.842283,1.54694 0.348493,0.32031 0.91436,1.1777 1.257482,1.9053 0.612216,1.29824 0.623905,1.47194 0.626442,9.30934 0.0014,4.42479 0.115245,8.28274 0.255208,8.65087 0.186066,0.48939 0.51718,0.71221 1.256771,0.84573 1.326945,0.23955 1.485489,0.35265 1.11689,0.79679 -0.464417,0.55958 -8.242875,0.54134 -8.709103,-0.0204 -0.363358,-0.43782 -0.318264,-0.46748 1.320318,-0.86837 l 0.926042,-0.22657 0.0697,-8.60003 c 0.06909,-8.52472 0.06437,-8.6103 -0.539052,-9.77285 -0.46721,-0.90012 -0.944808,-1.3469 -2.054075,-1.92154 -1.258893,-0.65215 -1.642851,-0.72933 -2.9767,-0.59832 -2.991198,0.29379 -5.677381,2.18037 -6.83696,4.80179 -0.462393,1.04532 -0.497767,1.75011 -0.43321,8.63134 l 0.0703,7.49309 1.104361,0.26651 c 1.319782,0.3185 1.663798,0.60125 1.136935,0.93445 -0.397528,0.2514 -7.793083,0.32103 -8.392858,0.079 z M 183.2816,155.28151 c -0.0861,-0.22443 -0.0831,-0.96857 0.007,-1.65364 0.0898,-0.68507 0.57571,-4.99605 1.07979,-9.57996 1.38698,-12.61275 1.44028,-13.09489 1.87195,-16.93333 0.22094,-1.96453 0.51423,-4.70297 0.65177,-6.08542 0.23389,-2.3509 0.72483,-6.7773 1.31145,-11.82443 0.48678,-4.18806 2.31051,-6.17558 5.65367,-6.16142 3.18905,0.0135 5.46788,2.27045 5.149,5.09955 -0.0699,0.62031 -1.82663,6.30358 -3.90381,12.62947 -6.02674,18.354 -7.61593,23.33045 -9.27258,29.03642 -0.85654,2.95018 -1.62923,5.48026 -1.71707,5.6224 -0.23893,0.38659 -0.65375,0.31188 -0.83086,-0.14964 z"
         id="path40" /><path
         style="fill:#f7d6a5"
         d="m 136.34711,173.12576 c -4.47115,-0.57826 -10.08773,-2.89723 -13.91818,-5.74652 -6.2058,-4.61619 -10.46475,-11.8765 -11.88502,-20.26059 -0.54951,-3.24388 -0.39966,-10.5675 0.27938,-13.65407 3.26888,-14.85854 14.47655,-27.37395 28.78285,-32.14127 4.93672,-1.645072 7.65456,-2.074827 13.15699,-2.080426 4.23033,-0.0043 5.3945,0.09129 8.57588,0.70419 2.0246,0.390046 4.1417,0.709176 4.70466,0.709176 0.67766,0 1.07642,0.13772 1.17996,0.40753 0.17826,0.46455 -0.64644,16.60189 -0.87948,17.20918 -0.0839,0.21853 -0.28662,0.35298 -0.45059,0.29879 -0.18752,-0.062 -0.35919,-1.31772 -0.4627,-3.38462 -0.20065,-4.00673 -0.5083,-5.37276 -1.73641,-7.70986 -1.53461,-2.92035 -4.02615,-4.90847 -7.75632,-6.18913 -1.19315,-0.40964 -2.19371,-0.49643 -5.55625,-0.482 -3.68549,0.0158 -4.34067,0.0909 -6.46598,0.74088 -4.77509,1.46041 -8.80479,4.02977 -13.11318,8.36106 -5.04044,5.06723 -8.37189,11.25985 -9.82595,18.26483 -0.76618,3.69111 -0.94323,10.58592 -0.37707,14.68438 2.06094,14.9192 6.25505,23.26027 13.62344,27.09373 2.70276,1.40613 5.05025,1.95573 8.35354,1.95573 9.26704,3e-5 17.87176,-5.81915 20.45895,-13.83592 0.98409,-3.04937 1.17906,-5.03598 1.03548,-10.5509 -0.15292,-5.87354 -0.44759,-7.17497 -1.91657,-8.46475 -1.76232,-1.54734 -4.29462,-1.59643 -9.12682,-0.17694 -2.39576,0.70378 -3.43959,0.83017 -3.43959,0.41648 0,-0.1404 0.20836,-0.36481 0.46303,-0.49868 0.43243,-0.22732 28.33084,-8.42148 29.63333,-8.70373 0.78011,-0.16905 0.83168,0.71416 0.0536,0.91764 -1.47028,0.38449 -4.23403,1.9805 -5.33356,3.08002 -1.34086,1.34087 -2.18254,3.18707 -2.48194,5.44408 -0.0986,0.74343 -0.0293,5.20177 0.15396,9.90741 0.19444,4.99152 0.23613,8.72931 0.10009,8.97241 -0.12825,0.22917 -0.7307,0.75176 -1.33878,1.1613 -0.60808,0.40954 -2.19388,1.63759 -3.52399,2.72899 -4.0074,3.28823 -6.84375,5.19744 -10.18509,6.85584 -7.05686,3.50249 -14.0481,4.83663 -20.78165,3.96576 z m -56.220382,-5.00153 c -0.910344,-0.28258 -1.976094,-1.18213 -1.976094,-1.66791 0,-0.53936 1.314818,-2.30007 1.717581,-2.30007 0.206572,0 0.809568,0.2945 1.339989,0.65446 1.991255,1.3513 4.165062,1.11874 5.916803,-0.633 1.038151,-1.03816 2.931877,-4.48491 2.931877,-5.33629 0,-0.50988 -8.651809,-19.65301 -9.394616,-20.78668 -0.239869,-0.36608 -0.863993,-0.84438 -1.386942,-1.06289 -1.509281,-0.63061 -0.608553,-0.87334 3.240933,-0.87334 3.325988,0 4.883633,0.27837 3.696752,0.66065 -1.636634,0.52714 -1.771877,0.64544 -1.587271,1.38841 0.151149,0.60832 3.926806,9.17435 6.352897,14.41315 0.703004,1.51804 1.02088,1.81603 1.270086,1.19063 0.07248,-0.1819 1.454439,-3.5945 3.071015,-7.58356 1.616577,-3.98906 2.93923,-7.59325 2.93923,-8.00932 0,-0.74828 -0.200963,-0.9125 -1.712377,-1.39931 -0.43629,-0.14052 -0.457959,-0.20839 -0.132292,-0.41435 0.518948,-0.32818 5.473861,-0.32518 5.676961,0.003 0.0876,0.14181 -0.36679,0.50516 -1.00986,0.80744 -1.356741,0.63774 -1.552067,1.00589 -4.769152,8.98888 -1.084912,2.69213 -2.348525,5.78776 -2.808031,6.87917 -0.459506,1.0914 -1.371635,3.35359 -2.026953,5.02708 -2.061912,5.26551 -4.170995,8.36363 -6.50384,9.55376 -1.164976,0.59433 -3.699843,0.85564 -4.846696,0.49964 z m 101.344292,-2.25316 c -1.72209,-0.93045 -2.76203,-2.5842 -2.77291,-4.40958 -0.0148,-2.48702 2.07864,-4.71358 4.43181,-4.71358 1.20091,0 3.07776,1.35959 3.72634,2.69936 0.71517,1.47736 0.71831,2.64245 0.011,4.10347 -1.07245,2.21537 -3.58833,3.29717 -5.39628,2.32033 z m -81.23494,-2.52032 c -0.0939,-0.15198 0.31577,-0.80416 0.91043,-1.44929 1.14601,-1.24328 1.38228,-2.16352 0.61819,-2.40772 -1.65439,-0.52873 -2.365097,-1.53056 -2.030773,-2.86262 0.24338,-0.9697 1.593023,-1.80076 2.613363,-1.6092 2.86667,0.53819 2.86313,4.41812 -0.007,7.2161 -1.45291,1.41658 -1.80259,1.60146 -2.10464,1.11273 z m -34.785446,-4.15469 c -2.294969,-0.62357 -3.885388,-1.59637 -5.502351,-3.36559 -2.066461,-2.26104 -2.546748,-3.75667 -2.558106,-7.96605 l -0.0093,-3.45953 1.125681,-2.27172 c 1.291265,-2.60588 2.896513,-4.24031 5.305754,-5.4022 1.278354,-0.61651 1.926105,-0.74199 4.28419,-0.82995 3.606717,-0.13452 5.253908,0.42492 7.467318,2.53615 1.56259,1.49046 2.326788,2.97211 2.704704,5.24395 0.330401,1.98621 0.477024,1.95429 -8.97704,1.95429 h -8.29222 l -0.162503,0.99219 c -0.221411,1.35185 0.245551,4.7322 0.886857,6.41998 1.4946,3.93347 4.155449,5.74961 8.051037,5.49517 3.288869,-0.21481 5.53714,-1.79535 6.97533,-4.90369 0.953274,-2.0603 1.400683,-2.41018 1.400683,-1.09537 0,1.16029 -1.487352,3.81268 -2.738567,4.88368 -2.253172,1.92863 -6.559077,2.69316 -9.961433,1.76869 z m 8.969955,-14.72009 c 0.49045,-0.59096 0.100744,-3.10201 -0.734593,-4.73333 -0.906241,-1.76978 -2.178093,-2.75558 -4.036735,-3.12885 -2.79513,-0.56134 -5.65805,0.85348 -7.235162,3.57553 -0.69735,1.20361 -1.572238,3.99434 -1.359918,4.33788 0.07535,0.12191 3.038902,0.25027 6.585682,0.28525 5.485849,0.0541 6.498266,0.004 6.780726,-0.33648 z m -44.362784,14.33689 c 0.05799,-0.17397 0.432711,-0.40383 0.832714,-0.51081 1.57135,-0.42024 1.487199,0.44717 1.487199,-15.32987 V 128.4675 l -0.588038,-0.41188 c -0.323421,-0.22653 -0.799671,-0.41187 -1.058334,-0.41187 -0.807553,0 -0.513745,-0.49739 0.389601,-0.65956 0.472943,-0.0849 1.693333,-0.17959 2.711979,-0.21043 l 1.852083,-0.0561 0.07069,6.68073 c 0.03888,3.6744 0.142028,6.68073 0.22922,6.68073 0.08719,0 0.844071,-0.63469 1.681953,-1.41042 2.458125,-2.27579 5.387254,-3.3024 8.403876,-2.94543 2.84342,0.33647 4.825808,1.56189 5.976515,3.69439 0.542903,1.00612 0.577608,1.48482 0.703372,9.70195 0.07276,4.75398 0.220274,8.73134 0.327808,8.83857 0.107533,0.10723 0.630889,0.26573 1.163012,0.35222 0.532124,0.0865 0.950157,0.27633 0.928964,0.42185 -0.02379,0.16335 -1.607625,0.26458 -4.139575,0.26458 -2.548898,0 -4.106004,-0.10014 -4.114153,-0.26458 -0.0072,-0.14552 0.373925,-0.34374 0.846969,-0.44049 1.535344,-0.31401 1.547392,-0.38271 1.547392,-8.82248 0,-6.10443 -0.0831,-7.98645 -0.39973,-9.05265 -1.522694,-5.12747 -9.416948,-4.46261 -12.355438,1.04058 -0.58274,1.09135 -0.60947,1.41638 -0.688139,8.36783 -0.09145,8.08045 -0.03244,8.40055 1.577691,8.55933 0.464561,0.0458 0.893512,0.23212 0.953226,0.41402 0.08385,0.25542 -0.8654,0.33073 -4.16886,0.33073 -3.200312,0 -4.250881,-0.0797 -4.171996,-0.3163 z m 153.260715,-3.6589 c -0.0921,-0.14908 -0.10242,-0.59556 -0.0229,-0.99219 0.0796,-0.39663 0.4526,-3.45959 0.82899,-6.80657 0.37639,-3.34698 0.79383,-7.03791 0.92765,-8.20208 0.13381,-1.16417 0.48377,-4.49792 0.77769,-7.40833 0.29392,-2.91042 0.65736,-6.3037 0.80765,-7.54063 0.15029,-1.23693 0.6259,-5.46364 1.05691,-9.39271 0.43101,-3.92906 0.93237,-7.61905 1.11413,-8.19998 1.11044,-3.54905 6.14522,-4.75725 8.79252,-2.10995 0.96727,0.96727 1.56599,2.72947 1.32975,3.91382 -0.0921,0.46193 -2.35484,7.50736 -5.02822,15.65653 -5.44959,16.61182 -7.02296,21.5796 -8.57326,27.06942 -0.58805,2.08235 -1.13837,3.89805 -1.22295,4.03489 -0.20225,0.32726 -0.57856,0.31664 -0.78799,-0.0222 z"
         id="path39" /><path
         style="fill:#c6c6c6"
         d="m 136.34711,173.12576 c -4.47115,-0.57826 -10.08773,-2.89723 -13.91818,-5.74652 -6.2058,-4.61619 -10.46475,-11.8765 -11.88502,-20.26059 -0.54951,-3.24388 -0.39966,-10.5675 0.27938,-13.65407 3.26888,-14.85854 14.47655,-27.37395 28.78285,-32.14127 4.93672,-1.645072 7.65456,-2.074827 13.15699,-2.080426 4.23033,-0.0043 5.3945,0.09129 8.57588,0.70419 2.0246,0.390046 4.1417,0.709176 4.70466,0.709176 0.67766,0 1.07642,0.13772 1.17996,0.40753 0.17826,0.46455 -0.64644,16.60189 -0.87948,17.20918 -0.0839,0.21853 -0.28662,0.35298 -0.45059,0.29879 -0.18752,-0.062 -0.35919,-1.31772 -0.4627,-3.38462 -0.20065,-4.00673 -0.5083,-5.37276 -1.73641,-7.70986 -1.53461,-2.92035 -4.02615,-4.90847 -7.75632,-6.18913 -1.19315,-0.40964 -2.19371,-0.49643 -5.55625,-0.482 -3.68549,0.0158 -4.34067,0.0909 -6.46598,0.74088 -4.77509,1.46041 -8.80479,4.02977 -13.11318,8.36106 -5.04044,5.06723 -8.37189,11.25985 -9.82595,18.26483 -0.76618,3.69111 -0.94323,10.58592 -0.37707,14.68438 2.06094,14.9192 6.25505,23.26027 13.62344,27.09373 2.70276,1.40613 5.05025,1.95573 8.35354,1.95573 9.26704,3e-5 17.87176,-5.81915 20.45895,-13.83592 0.98409,-3.04937 1.17906,-5.03598 1.03548,-10.5509 -0.15292,-5.87354 -0.44759,-7.17497 -1.91657,-8.46475 -1.76232,-1.54734 -4.29462,-1.59643 -9.12682,-0.17694 -2.39576,0.70378 -3.43959,0.83017 -3.43959,0.41648 0,-0.1404 0.20836,-0.36481 0.46303,-0.49868 0.43243,-0.22732 28.33084,-8.42148 29.63333,-8.70373 0.78011,-0.16905 0.83168,0.71416 0.0536,0.91764 -1.47028,0.38449 -4.23403,1.9805 -5.33356,3.08002 -1.34086,1.34087 -2.18254,3.18707 -2.48194,5.44408 -0.0986,0.74343 -0.0293,5.20177 0.15396,9.90741 0.19444,4.99152 0.23613,8.72931 0.10009,8.97241 -0.12825,0.22917 -0.7307,0.75176 -1.33878,1.1613 -0.60808,0.40954 -2.19388,1.63759 -3.52399,2.72899 -4.0074,3.28823 -6.84375,5.19744 -10.18509,6.85584 -7.05686,3.50249 -14.0481,4.83663 -20.78165,3.96576 z m -56.220382,-5.00153 c -0.910344,-0.28258 -1.976094,-1.18213 -1.976094,-1.66791 0,-0.53936 1.314818,-2.30007 1.717581,-2.30007 0.206572,0 0.809568,0.2945 1.339989,0.65446 1.991255,1.3513 4.165062,1.11874 5.916803,-0.633 1.038151,-1.03816 2.931877,-4.48491 2.931877,-5.33629 0,-0.50988 -8.651809,-19.65301 -9.394616,-20.78668 -0.239869,-0.36608 -0.863993,-0.84438 -1.386942,-1.06289 -1.509281,-0.63061 -0.608553,-0.87334 3.240933,-0.87334 3.325988,0 4.883633,0.27837 3.696752,0.66065 -1.636634,0.52714 -1.771877,0.64544 -1.587271,1.38841 0.151149,0.60832 3.926806,9.17435 6.352897,14.41315 0.703004,1.51804 1.02088,1.81603 1.270086,1.19063 0.07248,-0.1819 1.454439,-3.5945 3.071015,-7.58356 1.616577,-3.98906 2.93923,-7.59325 2.93923,-8.00932 0,-0.74828 -0.200963,-0.9125 -1.712377,-1.39931 -0.43629,-0.14052 -0.457959,-0.20839 -0.132292,-0.41435 0.518948,-0.32818 5.473861,-0.32518 5.676961,0.003 0.0876,0.14181 -0.36679,0.50516 -1.00986,0.80744 -1.356741,0.63774 -1.552067,1.00589 -4.769152,8.98888 -1.084912,2.69213 -2.348525,5.78776 -2.808031,6.87917 -0.459506,1.0914 -1.371635,3.35359 -2.026953,5.02708 -2.061912,5.26551 -4.170995,8.36363 -6.50384,9.55376 -1.164976,0.59433 -3.699843,0.85564 -4.846696,0.49964 z m 100.946692,-2.9758 c -1.17615,-0.80283 -1.85195,-2.15781 -1.85195,-3.71318 0,-2.3313 1.30166,-3.89295 3.41403,-4.09593 1.63198,-0.15681 2.821,0.49415 3.67365,2.01123 1.57444,2.80134 -0.25218,6.3932 -3.25122,6.3932 -0.71877,0 -1.42097,-0.21065 -1.98451,-0.59532 z m -80.83734,-1.79768 c -0.0939,-0.15198 0.31577,-0.80416 0.91043,-1.44929 1.14601,-1.24328 1.38228,-2.16352 0.61819,-2.40772 -1.65439,-0.52873 -2.365097,-1.53056 -2.030773,-2.86262 0.24338,-0.9697 1.593023,-1.80076 2.613363,-1.6092 2.86667,0.53819 2.86313,4.41812 -0.007,7.2161 -1.45291,1.41658 -1.80259,1.60146 -2.10464,1.11273 z m -34.785446,-4.15469 c -2.294969,-0.62357 -3.885388,-1.59637 -5.502351,-3.36559 -2.066461,-2.26104 -2.546748,-3.75667 -2.558106,-7.96605 l -0.0093,-3.45953 1.125681,-2.27172 c 1.291265,-2.60588 2.896513,-4.24031 5.305754,-5.4022 1.278354,-0.61651 1.926105,-0.74199 4.28419,-0.82995 3.606717,-0.13452 5.253908,0.42492 7.467318,2.53615 1.56259,1.49046 2.326788,2.97211 2.704704,5.24395 0.330401,1.98621 0.477024,1.95429 -8.97704,1.95429 h -8.29222 l -0.162503,0.99219 c -0.221411,1.35185 0.245551,4.7322 0.886857,6.41998 1.4946,3.93347 4.155449,5.74961 8.051037,5.49517 3.288869,-0.21481 5.53714,-1.79535 6.97533,-4.90369 0.953274,-2.0603 1.400683,-2.41018 1.400683,-1.09537 0,1.16029 -1.487352,3.81268 -2.738567,4.88368 -2.253172,1.92863 -6.559077,2.69316 -9.961433,1.76869 z m 8.969955,-14.72009 c 0.49045,-0.59096 0.100744,-3.10201 -0.734593,-4.73333 -0.906241,-1.76978 -2.178093,-2.75558 -4.036735,-3.12885 -2.79513,-0.56134 -5.65805,0.85348 -7.235162,3.57553 -0.69735,1.20361 -1.572238,3.99434 -1.359918,4.33788 0.07535,0.12191 3.038902,0.25027 6.585682,0.28525 5.485849,0.0541 6.498266,0.004 6.780726,-0.33648 z m -44.362784,14.33689 c 0.05799,-0.17397 0.432711,-0.40383 0.832714,-0.51081 1.57135,-0.42024 1.487199,0.44717 1.487199,-15.32987 V 128.4675 l -0.588038,-0.41188 c -0.323421,-0.22653 -0.799671,-0.41187 -1.058334,-0.41187 -0.807553,0 -0.513745,-0.49739 0.389601,-0.65956 0.472943,-0.0849 1.693333,-0.17959 2.711979,-0.21043 l 1.852083,-0.0561 0.07069,6.68073 c 0.03888,3.6744 0.142028,6.68073 0.22922,6.68073 0.08719,0 0.844071,-0.63469 1.681953,-1.41042 2.458125,-2.27579 5.387254,-3.3024 8.403876,-2.94543 2.84342,0.33647 4.825808,1.56189 5.976515,3.69439 0.542903,1.00612 0.577608,1.48482 0.703372,9.70195 0.07276,4.75398 0.220274,8.73134 0.327808,8.83857 0.107533,0.10723 0.630889,0.26573 1.163012,0.35222 0.532124,0.0865 0.950157,0.27633 0.928964,0.42185 -0.02379,0.16335 -1.607625,0.26458 -4.139575,0.26458 -2.548898,0 -4.106004,-0.10014 -4.114153,-0.26458 -0.0072,-0.14552 0.373925,-0.34374 0.846969,-0.44049 1.535344,-0.31401 1.547392,-0.38271 1.547392,-8.82248 0,-6.10443 -0.0831,-7.98645 -0.39973,-9.05265 -1.522694,-5.12747 -9.416948,-4.46261 -12.355438,1.04058 -0.58274,1.09135 -0.60947,1.41638 -0.688139,8.36783 -0.09145,8.08045 -0.03244,8.40055 1.577691,8.55933 0.464561,0.0458 0.893512,0.23212 0.953226,0.41402 0.08385,0.25542 -0.8654,0.33073 -4.16886,0.33073 -3.200312,0 -4.250881,-0.0797 -4.171996,-0.3163 z m 153.260715,-3.6589 c -0.0921,-0.14908 -0.10242,-0.59556 -0.0229,-0.99219 0.0796,-0.39663 0.4526,-3.45959 0.82899,-6.80657 0.37639,-3.34698 0.79383,-7.03791 0.92765,-8.20208 0.13381,-1.16417 0.48377,-4.49792 0.77769,-7.40833 0.29392,-2.91042 0.65736,-6.3037 0.80765,-7.54063 0.15029,-1.23693 0.6259,-5.46364 1.05691,-9.39271 0.43101,-3.92906 0.93237,-7.61905 1.11413,-8.19998 1.11044,-3.54905 6.14522,-4.75725 8.79252,-2.10995 0.96727,0.96727 1.56599,2.72947 1.32975,3.91382 -0.0921,0.46193 -2.35484,7.50736 -5.02822,15.65653 -5.44959,16.61182 -7.02296,21.5796 -8.57326,27.06942 -0.58805,2.08235 -1.13837,3.89805 -1.22295,4.03489 -0.20225,0.32726 -0.57856,0.31664 -0.78799,-0.0222 z"
         id="path38" /><path
         style="fill:#afafaf"
         d="m 138.87251,173.23382 c -5.55254,-0.30985 -10.23246,-1.90393 -15.35603,-5.23058 -6.30839,-4.09593 -10.87693,-11.23594 -12.7038,-19.85429 -0.64146,-3.02612 -0.65565,-10.79686 -0.0255,-13.98217 2.2342,-11.29422 9.3536,-21.66911 19.35412,-28.20418 4.53614,-2.96425 10.29256,-5.19319 15.875,-6.146963 4.10787,-0.701838 11.45255,-0.563801 15.61042,0.293383 1.4552,0.30001 3.18161,0.54768 3.83645,0.5504 1.96494,0.008 1.95358,-0.0198 1.62635,4.0004 -0.15835,1.94538 -0.3567,5.38252 -0.44077,7.63809 -0.16799,4.50678 -0.33384,6.08542 -0.63934,6.08542 -0.11055,0 -0.27984,-1.33945 -0.3762,-2.97656 -0.31112,-5.28597 -1.42798,-8.3207 -4.01392,-10.90664 -3.78816,-3.78816 -10.43217,-4.984136 -17.45507,-3.14205 -4.16865,1.09343 -9.31238,4.28877 -13.26869,8.24265 -7.20426,7.19984 -10.77284,16.15906 -10.71725,26.90656 0.0566,10.94249 3.25188,22.58994 7.75829,28.28052 2.54322,3.21152 6.17086,5.6954 9.74535,6.67276 2.76313,0.75551 7.41516,0.65723 10.6195,-0.22434 6.65808,-1.83176 11.20784,-5.41902 13.84542,-10.91644 1.90473,-3.96996 2.34233,-6.99944 1.98974,-13.77485 -0.26159,-5.02653 -0.53832,-6.19639 -1.75314,-7.41121 -1.70012,-1.70012 -4.25852,-1.79728 -9.4554,-0.3591 -2.72303,0.75357 -3.49043,0.8201 -2.9238,0.25347 0.2561,-0.25611 4.0859,-1.43042 13.73914,-4.21278 3.05594,-0.88081 7.81473,-2.25943 10.57509,-3.06361 2.76037,-0.80417 5.17138,-1.46213 5.35782,-1.46213 0.82894,0 0.18296,0.50168 -1.71155,1.32922 -3.00092,1.31082 -4.85264,3.22049 -5.64167,5.8182 -0.56937,1.87452 -0.58286,2.17904 -0.4093,9.23561 0.0987,4.01345 0.25249,8.21808 0.34173,9.34363 0.18866,2.37966 0.74053,1.6804 -4.80795,6.09199 -4.63874,3.68826 -6.42299,4.92346 -9.41534,6.51803 -5.97647,3.18476 -13.26156,4.9367 -19.15966,4.60756 z m -59.597396,-5.63509 c -0.977533,-0.59601 -1.089766,-1.25191 -0.410877,-2.40118 0.638897,-1.08156 1.082321,-1.15219 2.231943,-0.3555 1.185254,0.82138 2.952785,1.0918 4.277875,0.65448 1.782662,-0.58833 4.682829,-4.67115 4.682829,-6.59242 0,-0.43087 -1.902487,-4.94456 -4.324584,-10.26015 -5.225141,-11.46722 -5.069867,-11.16249 -5.8746,-11.52916 -1.251359,-0.57015 -0.619642,-0.73973 2.724705,-0.73142 l 3.373438,0.008 -0.727604,0.54285 c -0.400183,0.29857 -0.727605,0.77567 -0.727605,1.06023 0,0.65012 7.01424,16.19636 7.359486,16.31144 0.271525,0.0905 0.621809,-0.70771 4.095324,-9.33233 2.8351,-7.03945 2.839636,-7.05945 1.779088,-7.84354 -0.722017,-0.53381 -0.764336,-0.63072 -0.347318,-0.79534 0.641878,-0.25339 3.521726,-0.2382 4.179046,0.022 0.46823,0.18537 0.40787,0.26702 -0.52415,0.709 -1.548909,0.73454 -1.152301,-0.10785 -8.492632,18.03821 -3.498346,8.64828 -4.959344,11.0338 -7.547474,12.32351 -1.800726,0.89734 -4.407835,0.97514 -5.72689,0.1709 z m 101.798306,-2.4503 c -1.17615,-0.80283 -1.85195,-2.15781 -1.85195,-3.71318 0,-2.3313 1.30166,-3.89295 3.41403,-4.09593 1.63198,-0.15681 2.821,0.49415 3.67365,2.01123 1.57444,2.80134 -0.25218,6.3932 -3.25122,6.3932 -0.71877,0 -1.42097,-0.21065 -1.98451,-0.59532 z m -80.69779,-2.0044 c 0,-0.12015 0.30897,-0.50711 0.6866,-0.85989 1.44249,-1.34761 1.78015,-2.89039 0.6326,-2.89039 -0.86865,0 -1.848362,-1.16123 -1.848362,-2.19082 0,-1.20765 0.904352,-2.04252 2.212502,-2.04252 2.07758,0 2.95217,2.42551 1.76495,4.89479 -0.59306,1.2335 -0.88547,1.59647 -2.07952,2.58132 -0.88709,0.73166 -1.36877,0.91026 -1.36877,0.50751 z m -33.866662,-3.78795 c -3.126823,-0.51653 -6.389811,-2.69584 -7.725806,-5.15997 -1.962375,-3.61943 -2.032973,-8.24661 -0.18563,-12.16676 1.478838,-3.13816 5.368248,-5.96192 8.119798,-5.89508 l 0.982263,0.0239 -0.829546,0.24042 c -1.29852,0.37634 -3.315597,1.85721 -4.112351,3.01914 -0.797627,1.16321 -1.804978,3.85231 -1.804978,4.81834 v 0.61456 l 6.813021,-0.0706 6.81302,-0.0706 -0.02075,-1.71979 c -0.03684,-3.05407 -1.799961,-5.69138 -4.324954,-6.46934 l -1.210551,-0.37297 1.346803,-0.0184 c 0.996579,-0.0136 1.764856,0.19048 2.954448,0.78492 2.837197,1.41777 4.616203,4.03399 4.667911,6.86467 l 0.02667,1.46011 -8.453393,0.0699 c -6.358503,0.0526 -8.504855,0.15096 -8.661053,0.39688 -0.332088,0.52284 -0.23924,3.6124 0.166019,5.52441 0.999618,4.71618 3.927012,7.42166 8.084885,7.472 3.470451,0.042 5.986726,-1.5357 7.575168,-4.7497 1.417212,-2.86753 2.088224,-2.49212 0.741055,0.4146 -1.321238,2.85077 -3.313332,4.30986 -6.712137,4.91622 -2.256509,0.40258 -2.256051,0.40257 -4.249919,0.0732 z M 30.68815,158.93986 c -0.390758,-0.10018 -0.270395,-0.23024 0.55511,-0.59983 0.963862,-0.43153 1.06881,-0.57959 1.226546,-1.7304 0.226258,-1.65073 0.186016,-25.83659 -0.04555,-27.37838 -0.132387,-0.88144 -0.33342,-1.25845 -0.774138,-1.45181 -1.219898,-0.5352 -0.410411,-0.84622 2.579687,-0.99119 l 1.455208,-0.0706 0.0706,6.9762 0.0706,6.97621 1.433498,-1.49193 c 2.006057,-2.08781 4.288476,-3.13013 7.187384,-3.28229 3.750975,-0.19687 6.282606,1.00604 7.550507,3.58764 0.602595,1.22696 0.619066,1.46003 0.687173,9.72376 0.06791,8.23921 0.08473,8.4791 0.6263,8.92968 0.306087,0.25467 0.811221,0.46485 1.122522,0.46708 0.462417,0.003 0.493369,0.051 0.169126,0.26053 -0.470549,0.30409 -6.248244,0.31963 -7.011459,0.0189 -0.462155,-0.18213 -0.419994,-0.23276 0.33293,-0.39978 0.474153,-0.10519 0.984909,-0.42073 1.135013,-0.7012 0.175876,-0.32863 0.245652,-3.49611 0.196237,-8.90818 -0.07235,-7.92395 -0.107917,-8.458 -0.629803,-9.45657 -2.238607,-4.2833 -9.591052,-3.04505 -12.126136,2.0422 l -0.682199,1.36899 v 7.45628 c 0,8.15196 -0.05006,7.89471 1.600332,8.22479 0.750709,0.15014 0.808326,0.20903 0.371658,0.37985 -0.559689,0.21894 -6.284967,0.2593 -7.101141,0.05 z m 152.76705,-4.35271 c 2.1e-4,-0.33955 0.2421,-2.70096 0.53753,-5.24757 0.29543,-2.54662 0.7149,-6.29708 0.93215,-8.33438 0.21725,-2.03729 0.50509,-4.71619 0.63964,-5.95312 0.13454,-1.23693 0.67008,-6.17802 1.19009,-10.98021 1.92512,-17.77835 1.94118,-17.87315 3.26546,-19.27121 1.33547,-1.40987 3.06588,-1.89647 5.1634,-1.45196 2.4236,0.51361 3.80616,2.43591 3.55667,4.94516 -0.067,0.67426 -2.39536,8.13155 -5.17404,16.57176 -4.42064,13.42759 -7.31045,22.57266 -8.98179,28.42362 -0.49156,1.72081 -1.12985,2.45453 -1.12911,1.29791 z"
         id="path37" /><path
         style="fill:#909090"
         d="m 136.49126,172.98031 c -13.35575,-2.06921 -23.0651,-11.66651 -25.6639,-25.36774 -0.60116,-3.16942 -0.62155,-9.48173 -0.041,-12.69278 1.04398,-5.77427 3.15148,-11.03768 6.32982,-15.80854 5.83202,-8.75418 13.51821,-14.66276 23.07924,-17.74161 4.96355,-1.598366 7.01688,-1.898073 12.83229,-1.873016 4.45513,0.01919 5.64272,0.117912 8.70045,0.723216 1.9476,0.38554 3.92916,0.70099 4.40347,0.70099 0.96314,0 1.23893,0.4036 1.04155,1.52425 -0.0702,0.39859 -0.30772,3.93209 -0.5278,7.85223 -0.22008,3.92014 -0.44724,7.17462 -0.5048,7.23217 -0.0575,0.0576 -0.17539,-0.58998 -0.26186,-1.43898 -0.68236,-6.70002 -1.64362,-9.28249 -4.40771,-11.84155 -3.1115,-2.8807 -5.63625,-3.72336 -11.08914,-3.70111 -4.63082,0.0189 -6.73953,0.50873 -10.71562,2.48916 -3.39224,1.68962 -5.69822,3.41239 -9.00756,6.72945 -5.25173,5.26396 -8.71819,11.88805 -10.08116,19.26412 -0.73161,3.95932 -0.60206,11.64457 0.28528,16.92342 1.78977,10.64753 4.55461,16.95893 9.39065,21.43636 5.94992,5.50872 14.46291,6.25531 23.03883,2.02053 2.40625,-1.18821 3.0999,-1.69369 5.18192,-3.77626 2.01471,-2.01524 2.60513,-2.81126 3.64772,-4.91796 1.72602,-3.48768 2.27644,-6.30537 2.27414,-11.64166 -0.003,-6.28801 -0.52086,-8.75199 -2.14834,-10.21596 -1.80933,-1.62754 -5.11511,-1.53434 -11.5765,0.32638 -0.44933,0.12939 -0.58099,0.0932 -0.44741,-0.12291 0.10411,-0.16845 0.39953,-0.30626 0.65649,-0.30626 0.25697,0 1.35127,-0.30307 2.43178,-0.67348 3.69277,-1.26591 25.49768,-7.54939 26.07985,-7.51538 0.12452,0.007 -0.70555,0.4896 -1.84459,1.07183 -2.16612,1.10724 -4.06324,2.76605 -4.80592,4.20223 -0.24071,0.46549 -0.61414,1.69274 -0.82984,2.72722 -0.33826,1.62231 -0.34938,3.05388 -0.0809,10.41324 0.17119,4.69279 0.23605,8.8064 0.14412,9.14136 -0.0919,0.33496 -0.63508,0.90667 -1.207,1.27048 -0.57193,0.3638 -2.12718,1.55442 -3.45611,2.64583 -7.08834,5.82141 -12.99185,8.89219 -20.10483,10.45776 -1.93731,0.4264 -9.02021,0.74564 -10.71562,0.48297 z m -56.620936,-5.222 c -0.436619,-0.19029 -0.967015,-0.55463 -1.178658,-0.80964 -0.339703,-0.40932 -0.324185,-0.57652 0.132394,-1.42649 0.618166,-1.15077 1.188754,-1.31596 2.169316,-0.62802 0.401023,0.28135 1.185847,0.65975 1.744052,0.84088 1.981617,0.64301 4.395995,-0.61084 6.044119,-3.13888 1.019297,-1.56349 0.720813,-0.60321 -0.391151,1.25841 -1.156699,1.93651 -3.054086,3.60126 -4.527313,3.97222 -1.540964,0.38802 -3.002832,0.36295 -3.992759,-0.0685 z m 101.203096,-2.60988 c -1.17615,-0.80283 -1.85195,-2.15781 -1.85195,-3.71318 0,-2.3313 1.30166,-3.89295 3.41403,-4.09593 1.63198,-0.15681 2.821,0.49415 3.67365,2.01123 1.57444,2.80134 -0.25218,6.3932 -3.25122,6.3932 -0.71877,0 -1.42097,-0.21065 -1.98451,-0.59532 z m -79.85357,-2.77812 c 1.51224,-1.62137 1.70378,-2.90353 0.47062,-3.15016 -0.94557,-0.18911 -1.844002,-1.22351 -1.844002,-2.12307 0,-0.89716 1.121742,-1.93667 2.089882,-1.93667 2.95638,0 3.0901,4.55446 0.20621,7.02297 -1.27537,1.09167 -1.88099,1.21436 -0.92271,0.18693 z m -10.993488,-2.97656 c 0.101957,-0.77446 -0.639704,-2.59268 -4.530833,-11.10756 -2.55901,-5.59983 -4.947959,-10.48965 -5.308775,-10.86626 -0.360815,-0.37661 -0.574986,-0.76579 -0.475935,-0.86484 0.246746,-0.24675 5.121067,-0.22925 5.110567,0.0183 -0.0046,0.10914 -0.172564,0.41498 -0.373191,0.67964 -0.534733,0.7054 -0.711871,0.2565 5.813456,14.73234 0.557574,1.23693 1.189599,2.45765 1.404499,2.71271 0.467298,0.55462 0.223791,1.54917 -0.987737,4.03417 -0.689209,1.41365 -0.760614,1.48609 -0.652051,0.66146 z m -24.511144,-0.36179 c -3.230548,-0.70472 -6.284995,-3.23001 -7.411097,-6.12719 -0.906759,-2.33287 -1.048896,-6.58994 -0.302117,-9.04855 0.920309,-3.02991 2.920785,-5.47774 5.444261,-6.66172 2.282462,-1.0709 2.442811,-0.95254 0.786712,0.58071 -2.317175,2.1453 -3.024035,3.75219 -3.371789,7.66501 -0.469903,5.28721 0.387787,8.70905 2.78239,11.1006 1.460735,1.45888 2.868975,2.12839 4.779753,2.27242 0.834618,0.0629 1.45267,0.21926 1.373447,0.34744 -0.19843,0.32107 -2.327428,0.25392 -4.08156,-0.12872 z m -33.757895,-0.98143 0.684978,-0.81405 v -14.23152 c 0,-14.08671 -0.0057,-14.23875 -0.55933,-14.94259 -0.307632,-0.39109 -0.500324,-0.77008 -0.428205,-0.8422 0.07212,-0.0721 0.978661,-0.20218 2.014539,-0.28903 1.50137,-0.12586 1.890646,-0.083 1.919072,0.21121 0.01961,0.20301 0.01391,3.2266 -0.01267,6.7191 -0.02932,3.85256 0.05506,6.50308 0.214537,6.73922 0.144577,0.21406 0.303922,0.33313 0.354101,0.26458 1.259064,-1.71992 1.600635,-2.1216 1.71061,-2.01163 0.07267,0.0727 -0.238872,0.5938 -0.692323,1.15806 -0.453451,0.56426 -0.961186,1.43535 -1.128301,1.93577 -0.333428,0.99842 -0.6034,13.19406 -0.329398,14.88009 0.08989,0.55312 0.41252,1.23773 0.716958,1.52135 0.551211,0.51354 0.541616,0.51569 -2.298012,0.51569 h -2.851535 z m 16.844587,0.1317 0.641433,-0.68235 0.07792,-7.55335 c 0.08932,-8.65787 -0.05363,-9.80924 -1.415355,-11.40011 -1.225966,-1.43227 -2.765504,-2.00782 -4.934926,-1.84491 -0.915829,0.0688 -1.903268,0.21956 -2.19431,0.33508 -0.379763,0.15074 -0.453797,0.12741 -0.26222,-0.0826 0.146821,-0.16096 1.037217,-0.48999 1.978658,-0.73118 3.837217,-0.98305 7.748759,0.40527 9.163332,3.25232 0.446731,0.89912 0.510769,1.8795 0.629605,9.63881 0.122794,8.01772 0.168479,8.67783 0.63632,9.19427 l 0.504028,0.55639 h -2.732961 -2.732961 z m 23.660183,0.17138 c 1.672675,-0.7485 3.722317,-2.76926 4.526357,-4.46257 0.394021,-0.82982 0.766591,-1.36143 0.827932,-1.18138 0.193487,0.56795 -1.143454,3.11707 -2.176738,4.15035 -0.990592,0.9906 -2.96006,2.02125 -3.794799,1.98588 -0.242597,-0.0103 0.03516,-0.23181 0.617248,-0.49228 z m 111.127977,-4.44997 c 0.16519,-1.15807 1.07619,-9.36137 2.38737,-21.49739 0.51096,-4.72943 0.98947,-9.13474 1.06335,-9.78959 0.0739,-0.65484 0.47948,-4.34578 0.90133,-8.20208 0.42185,-3.8563 0.89743,-7.35443 1.05685,-7.77362 0.81872,-2.15286 2.54969,-3.3228 4.9314,-3.33307 2.87942,-0.0124 5.07064,2.17535 4.77851,4.77098 -0.0746,0.6627 -1.87904,6.49676 -4.00989,12.96458 -5.39089,16.36309 -7.12413,21.73361 -8.35564,25.89025 -2.16515,7.30795 -2.38169,7.96213 -2.6356,7.96213 -0.14829,0 -0.19865,-0.42454 -0.11768,-0.99219 z m -91.143833,0.33073 c 0,-0.14552 0.115417,-0.44318 0.256481,-0.66146 0.141064,-0.21828 0.25648,-0.27781 0.25648,-0.13229 0,0.14552 -0.115416,0.44318 -0.25648,0.66146 -0.141064,0.21828 -0.256481,0.27781 -0.256481,0.13229 z m 2.38125,-5.82083 c 0,-0.14552 0.115417,-0.44318 0.256481,-0.66146 0.141064,-0.21828 0.25648,-0.27781 0.25648,-0.13229 0,0.14552 -0.115416,0.44317 -0.25648,0.66146 -0.141064,0.21828 -0.256481,0.27781 -0.256481,0.13229 z m -20.122032,-3.09623 c -0.0031,-0.0433 -0.03284,-1.0908 -0.06615,-2.32773 -0.05145,-1.91104 -0.169597,-2.43446 -0.786289,-3.48352 -0.399157,-0.679 -1.22426,-1.66127 -1.833562,-2.18281 -0.850778,-0.72823 -0.989339,-0.94766 -0.597177,-0.94567 1.012269,0.005 3.180799,1.26866 4.368951,2.54565 1.393322,1.4975 2.114045,3.15531 2.180616,5.01587 l 0.0465,1.29944 -1.653646,0.0788 c -0.909505,0.0433 -1.656164,0.0433 -1.659242,0 z m 23.724381,-6.43757 c 0.119796,-1.03702 0.05936,-1.41013 -0.273098,-1.68605 -0.759015,-0.62992 -0.460913,-0.81869 1.292855,-0.81869 1.834687,0 2.127407,0.22159 1.052587,0.79682 -0.36697,0.1964 -1.01798,0.96066 -1.446698,1.69836 l -0.779485,1.34127 z"
         id="path36" /><path
         style="fill:#fd9d0f"
         d="m 137.38081,172.88915 c -6.82869,-0.65096 -13.43175,-3.87866 -18.24501,-8.91851 -3.35207,-3.50988 -5.54466,-7.23024 -7.06349,-11.98523 -1.26671,-3.96569 -1.48257,-5.53723 -1.48999,-10.84791 -0.007,-5.3454 0.26663,-7.22084 1.7392,-11.89992 1.06177,-3.3738 3.5398,-8.30529 5.72005,-11.38342 2.00634,-2.8326 7.28635,-8.25648 9.78745,-10.05416 5.79005,-4.16162 12.05335,-6.79196 18.71641,-7.860134 4.14807,-0.664994 10.01845,-0.545085 14.41979,0.294544 1.96453,0.37476 4.07086,0.68252 4.68074,0.6839 0.60987,10e-4 1.18181,0.12055 1.27096,0.26481 0.16241,0.26278 -0.59668,13.52088 -0.78491,13.70911 -0.055,0.055 -0.17972,-0.47645 -0.27714,-1.18101 -1.13419,-8.20255 -5.20486,-12.34988 -13.06184,-13.30783 -5.83704,-0.711671 -12.38667,1.26921 -17.88504,5.40918 -7.93887,5.97754 -13.08142,14.49138 -14.56556,24.11422 -1.35322,8.77395 0.66017,22.24815 4.50692,30.16182 4.86384,10.00605 13.37794,14.10002 23.60776,11.3517 8.36461,-2.24722 14.04535,-8.06635 15.58011,-15.95966 0.44907,-2.30954 0.52355,-10.32349 0.11894,-12.79735 -0.60323,-3.68827 -2.47163,-5.23106 -6.36594,-5.25654 -0.94585,-0.006 -1.31629,-0.089 -1.05834,-0.23662 0.5899,-0.33755 19.72361,-5.84306 20.28647,-5.8372 0.30461,0.003 0.0388,0.28425 -0.71876,0.7602 -1.97647,1.24165 -3.61089,3.27206 -4.21914,5.24135 -0.62862,2.03521 -0.66986,4.32966 -0.25118,13.97435 0.1544,3.55669 0.18417,6.63072 0.0661,6.83117 -0.21851,0.37114 -2.18446,1.93889 -7.92685,6.32128 -8.10079,6.18223 -17.79063,9.24646 -26.58776,8.40786 z m -56.187467,-4.89116 c -0.145521,-0.0502 -0.595034,-0.16427 -0.998918,-0.25346 -0.403884,-0.0892 -0.971446,-0.39927 -1.261249,-0.68908 -0.481373,-0.48137 -0.493733,-0.59108 -0.143008,-1.26931 0.732953,-1.41737 1.091281,-1.52132 2.316762,-0.67206 0.920703,0.63805 1.364481,0.76196 2.728947,0.76196 1.336672,0 1.828014,-0.13141 2.734601,-0.73136 0.607836,-0.40225 1.105156,-0.6369 1.105156,-0.52145 0,0.40065 -1.956086,2.22112 -2.893731,2.6931 -0.914936,0.46056 -3.052558,0.8666 -3.58856,0.68166 z m 99.880077,-2.84956 c -1.17615,-0.80283 -1.85195,-2.15781 -1.85195,-3.71318 0,-2.3313 1.30166,-3.89295 3.41403,-4.09593 1.63198,-0.15681 2.821,0.49415 3.67365,2.01123 1.57444,2.80134 -0.25218,6.3932 -3.25122,6.3932 -0.71877,0 -1.42097,-0.21065 -1.98451,-0.59532 z m -78.69283,-4.05483 c 0.10238,-0.4256 0.22475,-0.81923 0.27191,-0.87475 0.25292,-0.29765 -0.51447,-1.04148 -1.22004,-1.18259 -0.59065,-0.11813 -0.9122,-0.39622 -1.17166,-1.01329 -0.601476,-1.4305 0.16122,-2.59797 1.69722,-2.59797 1.39154,0 2.12178,0.8518 2.12178,2.47498 0,1.28768 -0.67407,2.96215 -1.45251,3.60819 -0.38879,0.32267 -0.4139,0.28048 -0.2467,-0.41457 z m -70.532039,-2.46121 c 0,-0.1277 0.178594,-0.3804 0.396875,-0.56156 0.344104,-0.28558 0.396875,-2.29312 0.396875,-15.09803 0,-9.56037 -0.09331,-14.82633 -0.264583,-14.93218 -0.145521,-0.0899 -0.264584,-0.31843 -0.264584,-0.50777 0,-0.39193 2.905562,-0.79354 3.249897,-0.44921 0.11489,0.11489 0.20846,6.98225 0.207933,15.2608 -7.99e-4,12.53462 0.06167,15.14748 0.373501,15.6234 0.205954,0.31433 0.301283,0.64468 0.211843,0.73412 -0.255426,0.25543 -4.307757,0.18998 -4.307757,-0.0696 z m 16.941748,0.0338 c 0.0046,-0.10914 0.183222,-0.42955 0.396875,-0.71203 0.321804,-0.42546 0.38846,-1.89569 0.38846,-8.56826 0,-5.59451 -0.09907,-8.38535 -0.324378,-9.13735 -0.45504,-1.51878 -1.938904,-2.90342 -3.809736,-3.55496 l -1.554427,-0.54135 1.479303,-0.0209 c 2.982747,-0.0421 5.299701,1.18335 6.378733,3.37379 0.590645,1.19902 0.611054,1.48572 0.690662,9.7022 0.04658,4.80758 0.189513,8.57529 0.330729,8.71802 0.69623,0.70366 0.227674,0.93927 -1.867969,0.93927 -1.164167,0 -2.11288,-0.0893 -2.108252,-0.19844 z m 14.61792,-0.58045 c -3.802167,-1.79873 -5.899976,-5.42712 -5.891944,-10.19076 0.0055,-3.2913 1.081479,-6.22421 3.058828,-8.33815 1.30303,-1.39305 2.434466,-2.1954 3.552615,-2.51932 0.591144,-0.17125 0.546252,-0.069 -0.422304,0.96202 -2.111708,2.24786 -2.873731,4.23058 -3.160616,8.22363 -0.391959,5.45553 1.325243,9.63385 4.887856,11.89319 1.163166,0.73766 1.168851,0.74828 0.40051,0.74807 -0.428673,-1.2e-4 -1.519898,-0.35052 -2.424945,-0.77868 z m 26.891498,-0.0555 c -0.181064,-0.33832 -2.328453,-5.00832 -4.771976,-10.37778 -2.443523,-5.36945 -4.690665,-10.02651 -4.99365,-10.34902 l -0.55088,-0.58639 1.588853,-0.16607 c 0.87387,-0.0913 1.946411,-0.0945 2.383424,-0.007 0.694467,0.13889 0.759358,0.22471 0.515069,0.68117 -0.153726,0.28723 -0.20832,0.80586 -0.121321,1.15249 0.165492,0.65937 5.750476,13.18523 7.022473,15.74982 l 0.734251,1.48039 -0.571414,1.35173 c -0.728883,1.72424 -0.835599,1.81678 -1.234829,1.07081 z m -15.853249,-0.58842 c 0,-0.0549 0.208359,-0.2633 0.463021,-0.46302 0.419643,-0.32911 0.429002,-0.31975 0.09989,0.0999 -0.345643,0.44073 -0.562915,0.58089 -0.562915,0.36313 z M 184.06436,151.3901 c 0.0852,-1.20055 0.28276,-3.23216 0.43892,-4.51468 0.29183,-2.39666 0.9094,-8.00967 1.34452,-12.22022 0.13535,-1.30968 0.66105,-6.19125 1.16823,-10.84791 2.01706,-18.51952 1.84069,-17.50272 3.28681,-18.94884 3.01848,-3.01848 8.22915,-1.25293 8.23222,2.78935 0.001,1.3619 -0.2484,2.16953 -6.8704,22.2449 -3.05912,9.27408 -4.61786,14.21165 -6.74478,21.36511 -0.37858,1.2733 -0.76083,2.3151 -0.84942,2.3151 -0.0886,0 -0.0913,-0.98226 -0.006,-2.18281 z m -109.09444,-6.35 c -0.0031,-0.0364 -0.04466,-0.90121 -0.09225,-1.92185 -0.103304,-2.21525 -0.76107,-3.84702 -2.186929,-5.42528 -0.934481,-1.03435 -0.965227,-1.11386 -0.36054,-0.93232 1.228025,0.36867 2.866477,1.46035 3.689662,2.45835 1.010592,1.22522 1.86619,3.44369 1.86619,4.83884 v 1.04841 h -1.455208 c -0.800365,0 -1.45778,-0.0298 -1.460923,-0.0661 z m 23.511938,-7.4674 c -0.228561,-0.50426 -0.352369,-0.98003 -0.27513,-1.05727 0.228509,-0.22851 2.125612,-0.15995 2.275292,0.0822 0.0757,0.12247 -0.24989,0.59824 -0.723495,1.05728 l -0.861103,0.83461 z"
         id="path35" /><path
         style="fill:#6f6f6f"
         d="m 137.38081,172.88915 c -6.82869,-0.65096 -13.43175,-3.87866 -18.24501,-8.91851 -3.35207,-3.50988 -5.54466,-7.23024 -7.06349,-11.98523 -1.26671,-3.96569 -1.48257,-5.53723 -1.48999,-10.84791 -0.007,-5.3454 0.26663,-7.22084 1.7392,-11.89992 1.06177,-3.3738 3.5398,-8.30529 5.72005,-11.38342 2.00634,-2.8326 7.28635,-8.25648 9.78745,-10.05416 5.79005,-4.16162 12.05335,-6.79196 18.71641,-7.860134 4.14807,-0.664994 10.01845,-0.545085 14.41979,0.294544 1.96453,0.37476 4.07086,0.68252 4.68074,0.6839 0.60987,10e-4 1.18181,0.12055 1.27096,0.26481 0.16241,0.26278 -0.59668,13.52088 -0.78491,13.70911 -0.055,0.055 -0.17972,-0.47645 -0.27714,-1.18101 -1.13419,-8.20255 -5.20486,-12.34988 -13.06184,-13.30783 -5.83704,-0.711671 -12.38667,1.26921 -17.88504,5.40918 -7.93887,5.97754 -13.08142,14.49138 -14.56556,24.11422 -1.35322,8.77395 0.66017,22.24815 4.50692,30.16182 4.86384,10.00605 13.37794,14.10002 23.60776,11.3517 8.36461,-2.24722 14.04535,-8.06635 15.58011,-15.95966 0.44907,-2.30954 0.52355,-10.32349 0.11894,-12.79735 -0.60323,-3.68827 -2.47163,-5.23106 -6.36594,-5.25654 -0.94585,-0.006 -1.31629,-0.089 -1.05834,-0.23662 0.5899,-0.33755 19.72361,-5.84306 20.28647,-5.8372 0.30461,0.003 0.0388,0.28425 -0.71876,0.7602 -1.97647,1.24165 -3.61089,3.27206 -4.21914,5.24135 -0.62862,2.03521 -0.66986,4.32966 -0.25118,13.97435 0.1544,3.55669 0.18417,6.63072 0.0661,6.83117 -0.21851,0.37114 -2.18446,1.93889 -7.92685,6.32128 -8.10079,6.18223 -17.79063,9.24646 -26.58776,8.40786 z m -56.187467,-4.89116 c -0.145521,-0.0502 -0.595034,-0.16427 -0.998918,-0.25346 -0.403884,-0.0892 -0.971446,-0.39927 -1.261249,-0.68908 -0.481373,-0.48137 -0.493733,-0.59108 -0.143008,-1.26931 0.732953,-1.41737 1.091281,-1.52132 2.316762,-0.67206 0.920703,0.63805 1.364481,0.76196 2.728947,0.76196 1.336672,0 1.828014,-0.13141 2.734601,-0.73136 0.607836,-0.40225 1.105156,-0.6369 1.105156,-0.52145 0,0.40065 -1.956086,2.22112 -2.893731,2.6931 -0.914936,0.46056 -3.052558,0.8666 -3.58856,0.68166 z m 21.187247,-6.90439 c 0.10238,-0.4256 0.22475,-0.81923 0.27191,-0.87475 0.25292,-0.29765 -0.51447,-1.04148 -1.22004,-1.18259 -0.59065,-0.11813 -0.9122,-0.39622 -1.17166,-1.01329 -0.601476,-1.4305 0.16122,-2.59797 1.69722,-2.59797 1.39154,0 2.12178,0.8518 2.12178,2.47498 0,1.28768 -0.67407,2.96215 -1.45251,3.60819 -0.38879,0.32267 -0.4139,0.28048 -0.2467,-0.41457 z m -70.532039,-2.46121 c 0,-0.1277 0.178594,-0.3804 0.396875,-0.56156 0.344104,-0.28558 0.396875,-2.29312 0.396875,-15.09803 0,-9.56037 -0.09331,-14.82633 -0.264583,-14.93218 -0.145521,-0.0899 -0.264584,-0.31843 -0.264584,-0.50777 0,-0.39193 2.905562,-0.79354 3.249897,-0.44921 0.11489,0.11489 0.20846,6.98225 0.207933,15.2608 -7.99e-4,12.53462 0.06167,15.14748 0.373501,15.6234 0.205954,0.31433 0.301283,0.64468 0.211843,0.73412 -0.255426,0.25543 -4.307757,0.18998 -4.307757,-0.0696 z m 16.941748,0.0338 c 0.0046,-0.10914 0.183222,-0.42955 0.396875,-0.71203 0.321804,-0.42546 0.38846,-1.89569 0.38846,-8.56826 0,-5.59451 -0.09907,-8.38535 -0.324378,-9.13735 -0.45504,-1.51878 -1.938904,-2.90342 -3.809736,-3.55496 l -1.554427,-0.54135 1.479303,-0.0209 c 2.982747,-0.0421 5.299701,1.18335 6.378733,3.37379 0.590645,1.19902 0.611054,1.48572 0.690662,9.7022 0.04658,4.80758 0.189513,8.57529 0.330729,8.71802 0.69623,0.70366 0.227674,0.93927 -1.867969,0.93927 -1.164167,0 -2.11288,-0.0893 -2.108252,-0.19844 z m 14.61792,-0.58045 c -3.802167,-1.79873 -5.899976,-5.42712 -5.891944,-10.19076 0.0055,-3.2913 1.081479,-6.22421 3.058828,-8.33815 1.30303,-1.39305 2.434466,-2.1954 3.552615,-2.51932 0.591144,-0.17125 0.546252,-0.069 -0.422304,0.96202 -2.111708,2.24786 -2.873731,4.23058 -3.160616,8.22363 -0.391959,5.45553 1.325243,9.63385 4.887856,11.89319 1.163166,0.73766 1.168851,0.74828 0.40051,0.74807 -0.428673,-1.2e-4 -1.519898,-0.35052 -2.424945,-0.77868 z m 26.891498,-0.0555 c -0.181064,-0.33832 -2.328453,-5.00832 -4.771976,-10.37778 -2.443523,-5.36945 -4.690665,-10.02651 -4.99365,-10.34902 l -0.55088,-0.58639 1.588853,-0.16607 c 0.87387,-0.0913 1.946411,-0.0945 2.383424,-0.007 0.694467,0.13889 0.759358,0.22471 0.515069,0.68117 -0.153726,0.28723 -0.20832,0.80586 -0.121321,1.15249 0.165492,0.65937 5.750476,13.18523 7.022473,15.74982 l 0.734251,1.48039 -0.571414,1.35173 c -0.728883,1.72424 -0.835599,1.81678 -1.234829,1.07081 z m -15.853249,-0.58842 c 0,-0.0549 0.208359,-0.2633 0.463021,-0.46302 0.419643,-0.32911 0.429002,-0.31975 0.09989,0.0999 -0.345643,0.44073 -0.562915,0.58089 -0.562915,0.36313 z M 184.06436,151.3901 c 0.0852,-1.20055 0.28276,-3.23216 0.43892,-4.51468 0.29183,-2.39666 0.9094,-8.00967 1.34452,-12.22022 0.13535,-1.30968 0.66105,-6.19125 1.16823,-10.84791 2.01706,-18.51952 1.84069,-17.50272 3.28681,-18.94884 3.01848,-3.01848 8.22915,-1.25293 8.23222,2.78935 0.001,1.3619 -0.2484,2.16953 -6.8704,22.2449 -3.05912,9.27408 -4.61786,14.21165 -6.74478,21.36511 -0.37858,1.2733 -0.76083,2.3151 -0.84942,2.3151 -0.0886,0 -0.0913,-0.98226 -0.006,-2.18281 z m -109.09444,-6.35 c -0.0031,-0.0364 -0.04466,-0.90121 -0.09225,-1.92185 -0.103304,-2.21525 -0.76107,-3.84702 -2.186929,-5.42528 -0.934481,-1.03435 -0.965227,-1.11386 -0.36054,-0.93232 1.228025,0.36867 2.866477,1.46035 3.689662,2.45835 1.010592,1.22522 1.86619,3.44369 1.86619,4.83884 v 1.04841 h -1.455208 c -0.800365,0 -1.45778,-0.0298 -1.460923,-0.0661 z m 23.511938,-7.4674 c -0.228561,-0.50426 -0.352369,-0.98003 -0.27513,-1.05727 0.228509,-0.22851 2.125612,-0.15995 2.275292,0.0822 0.0757,0.12247 -0.24989,0.59824 -0.723495,1.05728 l -0.861103,0.83461 z"
         id="path34" /><path
         style="fill:#505050"
         d="m 135.20943,172.46501 c -10.83229,-1.9571 -19.43758,-9.53532 -22.91655,-20.18138 -1.25777,-3.84891 -1.66339,-6.59402 -1.6665,-11.27843 -0.004,-6.06899 1.07849,-10.8705 3.75884,-16.67209 3.33511,-7.21884 10.39548,-14.88746 17.60812,-19.12505 3.95972,-2.32642 10.20368,-4.54145 13.94429,-4.9467 1.14522,-0.12407 0.94185,-0.0294 -1.112,0.51782 -10.12554,2.69765 -19.65511,12.27451 -23.25,23.3654 -1.31122,4.04534 -1.71547,7.00219 -1.6902,12.36271 0.0511,10.8337 2.79323,21.47734 7.09566,27.54189 1.62265,2.28723 4.78795,5.1458 6.96432,6.28945 2.07135,1.08846 5.30499,2.01001 7.15224,2.03829 0.66794,0.0102 1.45257,0.12093 1.74361,0.24599 0.88842,0.38177 -5.36043,0.25248 -7.63183,-0.1579 z m 15.86036,-1.66002 c 6.43462,-2.53944 11.08201,-7.59007 12.81324,-13.92498 1.15746,-4.23537 0.98029,-14.08161 -0.29848,-16.5882 -0.92117,-1.80565 -2.50004,-2.79668 -4.52195,-2.83835 -1.61718,-0.0333 -1.39586,-0.49075 0.50622,-1.04621 0.9863,-0.28804 5.08226,-1.48469 9.10214,-2.65923 4.01987,-1.17454 7.45361,-2.13552 7.63053,-2.13552 0.17691,0 -0.25458,0.45558 -0.95887,1.01241 -2.31257,1.82838 -3.37737,3.66796 -3.77582,6.52322 -0.12495,0.89541 -0.10332,5.41131 0.0494,10.31668 l 0.27164,8.72418 -0.735,0.53623 c -0.40425,0.29493 -2.35583,1.83796 -4.33684,3.42896 -5.87537,4.71866 -9.49656,6.85658 -14.4356,8.52266 -3.18944,1.07589 -3.88419,1.14382 -1.31063,0.12815 z m -71.269567,-3.34074 c -1.11073,-0.4827 -1.281144,-0.9699 -0.689551,-1.97139 0.553679,-0.9373 0.938481,-0.99882 1.911961,-0.30564 0.3876,0.276 1.204443,0.63637 1.815206,0.80083 0.931064,0.25071 1.347459,0.21902 2.577262,-0.19616 0.806731,-0.27235 1.466783,-0.40327 1.466783,-0.29093 0,0.40614 -1.904925,1.76236 -2.889854,2.05745 -1.351252,0.40484 -3.135786,0.36476 -4.191807,-0.0942 z m 22.907277,-7.32098 c -0.0678,-0.68492 -0.24537,-0.89237 -0.97239,-1.13578 -1.63608,-0.54776 -2.114844,-1.97085 -1.01169,-3.00721 1.3396,-1.25849 3.36182,-0.21569 3.35057,1.72779 -0.005,0.90637 -0.83853,3.25318 -1.15511,3.25318 -0.0707,0 -0.16578,-0.37709 -0.21138,-0.83798 z M 32.4638,158.696 c -0.230927,-0.0942 -0.21222,-0.36273 0.0728,-1.04487 0.322791,-0.77254 0.369665,-3.17094 0.295742,-15.13199 -0.04832,-7.81767 -0.140604,-14.45206 -0.205087,-14.7431 -0.103066,-0.46519 0.03918,-0.5391 1.176442,-0.61132 0.711525,-0.0452 1.398403,0.0226 1.526394,0.15056 0.128451,0.12845 0.232283,6.96288 0.231755,15.25457 -5.83e-4,9.16077 0.09879,15.20824 0.254697,15.49956 0.190466,0.35588 0.150174,0.51817 -0.158015,0.63643 -0.47928,0.18392 -2.736881,0.17696 -3.194724,-0.01 z m 16.94797,0.005 c -0.211278,-0.087 -0.18595,-0.44118 0.08837,-1.23588 0.311436,-0.90221 0.366981,-2.59761 0.292208,-8.91916 -0.08768,-7.41262 -0.121282,-7.8597 -0.668098,-8.88859 -0.671826,-1.26412 -2.18659,-2.67462 -3.125346,-2.91023 -1.185854,-0.29763 -0.715776,-0.67768 0.600165,-0.48522 2.655975,0.38844 4.785074,2.00934 5.361775,4.08196 0.141718,0.50932 0.258334,4.37964 0.259145,8.6007 8.18e-4,4.25384 0.117902,8.08062 0.262681,8.58543 0.193387,0.6743 0.176213,0.96475 -0.06615,1.11868 -0.347068,0.22044 -2.505135,0.25801 -3.004757,0.0523 z m 13.657614,-0.91161 c -2.937596,-1.61726 -4.504439,-3.8265 -5.187636,-7.31453 -0.930444,-4.75035 0.907012,-9.97069 4.300692,-12.21857 1.635197,-1.08311 1.877181,-1.03836 0.915914,0.16936 -1.303715,1.63796 -2.138909,3.6056 -2.407082,5.67083 -0.867112,6.67776 0.44878,11.1319 4.06197,13.74928 0.940579,0.68135 0.97991,0.7539 0.406361,0.74957 -0.349256,-0.003 -1.289854,-0.36531 -2.090219,-0.80594 z m 27.040783,-0.41456 c -0.285317,-0.56301 -2.269765,-4.89319 -4.409885,-9.62262 -2.14012,-4.72943 -4.178513,-9.09641 -4.529762,-9.70441 -0.35125,-0.60799 -0.638636,-1.17876 -0.638636,-1.26836 0,-0.0896 0.863139,-0.12793 1.918087,-0.0852 l 1.918087,0.0777 -0.08042,0.92604 c -0.06117,0.70445 0.48682,2.19227 2.290115,6.21771 2.163537,4.8296 3.865793,8.55876 4.944229,10.8314 0.376695,0.79382 0.373501,0.96886 -0.03705,2.03012 -0.64741,1.67352 -0.796639,1.73838 -1.374766,0.59756 z m 93.983333,-5.65387 c 0.0842,-0.65485 0.27208,-2.32172 0.41755,-3.70417 0.14547,-1.38245 0.38444,-3.52557 0.53105,-4.7625 0.1466,-1.23693 0.56401,-5.10646 0.92757,-8.59896 0.36356,-3.4925 0.7819,-7.36203 0.92965,-8.59895 0.14774,-1.23693 0.38685,-3.43959 0.53135,-4.8948 0.95134,-9.58035 1.56478,-13.9559 2.11631,-15.09522 1.41078,-2.91427 5.89422,-3.4413 7.99871,-0.94026 0.89421,1.06272 1.13513,2.34376 0.74008,3.93527 -0.17097,0.68876 -2.55984,8.09839 -5.3086,16.46584 -2.74876,8.36745 -5.78818,17.83292 -6.75426,21.03437 -1.76681,5.85496 -2.42333,7.44565 -2.12941,5.15938 z M 74.923714,142.93609 c -0.126664,-2.32503 -0.50046,-3.33716 -1.831381,-4.95886 -0.411347,-0.50122 -0.703202,-0.95601 -0.648566,-1.01065 0.226038,-0.22603 2.203753,1.02233 3.114123,1.96568 1.229298,1.27384 2.04168,3.08836 2.128669,4.75455 l 0.0672,1.28714 -1.355219,0.0788 -1.355219,0.0788 z m 23.680826,-5.50276 -0.299607,-0.79375 h 1.084852 1.084855 l -0.760464,0.79375 c -0.418253,0.43656 -0.771613,0.79375 -0.785245,0.79375 -0.01363,0 -0.159607,-0.35719 -0.324391,-0.79375 z m 67.28643,-24.36994 c -0.0626,-0.20273 -0.24543,-1.08029 -0.40633,-1.95014 -0.1609,-0.86985 -0.63233,-2.2986 -1.04762,-3.175 -2.43017,-5.12839 -7.19663,-7.74655 -14.27685,-7.8421 l -2.29183,-0.0309 1.45521,-0.255658 c 2.35484,-0.413706 8.39088,-0.04685 13.22917,0.804048 l 4.36562,0.76776 -0.0304,0.76192 c -0.10652,2.67319 -0.69362,11.09885 -0.77934,11.18468 -0.0571,0.0572 -0.15509,-0.0619 -0.21767,-0.26458 z"
         id="path33" /><path
         style="fill:#2e2e2e"
         d="m 137.54959,172.6082 c -7.78908,-0.59119 -15.615,-4.9197 -20.40738,-11.28728 -3.07803,-4.08975 -5.27155,-9.39828 -6.09069,-14.74005 -0.50152,-3.2705 -0.35402,-9.59127 0.29681,-12.71942 2.64687,-12.7218 11.68437,-24.31727 23.31413,-29.91296 2.23961,-1.07759 6.81491,-2.76308 7.50045,-2.76308 0.16607,0 -0.98259,0.65525 -2.55256,1.45611 -3.53867,1.80511 -5.83212,3.50763 -9.08613,6.74499 -5.27238,5.24539 -8.52864,11.32011 -10.21201,19.05099 -0.39742,1.82517 -0.48802,3.37073 -0.48078,8.20208 0.008,5.36216 0.083,6.36023 0.75544,10.05417 1.43707,7.89469 3.72717,14.09869 6.6075,17.90007 3.1782,4.19451 7.73885,7.08198 12.09932,7.66041 0.71424,0.0948 1.29861,0.27599 1.29861,0.40277 0,0.12677 -0.0893,0.21284 -0.19844,0.19126 -0.10914,-0.0216 -1.38906,-0.1296 -2.84427,-0.24006 z m 17.90688,-3.94895 c 2.91629,-1.91451 5.51235,-4.81146 6.9675,-7.77505 1.94348,-3.95813 2.11312,-4.92743 2.11312,-12.07379 0,-7.25399 -0.17789,-8.21893 -1.83268,-9.94122 -0.91432,-0.95162 -1.33272,-1.17163 -2.75941,-1.45101 -1.02834,-0.20137 -1.5423,-0.40651 -1.32292,-0.52801 0.27996,-0.15506 14.34913,-4.28148 16.76293,-4.91649 0.34523,-0.0908 0.1079,0.25906 -0.68275,1.00657 -1.60987,1.52203 -2.49038,2.92599 -3.04167,4.84995 -0.39679,1.38475 -0.43276,2.36473 -0.28163,7.67292 0.0953,3.34698 0.24901,7.52332 0.34159,9.28075 0.13509,2.56432 0.0955,3.2549 -0.20027,3.49696 -7.19499,5.88748 -11.41885,8.86479 -15.10593,10.64782 -2.9617,1.43225 -3.37349,1.31643 -0.95788,-0.2694 z m -75.321461,-1.1902 c -0.582083,-0.21693 -1.088099,-0.39621 -1.124479,-0.3984 -0.276164,-0.0166 0.02881,-1.38555 0.414906,-1.86236 l 0.481051,-0.59407 1.152811,0.7632 c 0.924547,0.61208 1.444866,0.7632 2.627802,0.7632 0.811246,0 1.771715,-0.10647 2.134376,-0.2366 0.602731,-0.21628 0.626984,-0.19757 0.282284,0.21777 -1.102145,1.32801 -4.165234,2.0194 -5.968751,1.34726 z m 22.784781,-7.65064 c -0.1269,-0.50562 -0.39591,-0.74908 -0.95019,-0.85993 -1.42772,-0.28555 -2.161445,-1.86945 -1.33006,-2.87121 0.46968,-0.56593 2.19685,-0.51157 2.7378,0.0862 0.53532,0.59153 0.57655,2.80402 0.0693,3.71915 l -0.34983,0.63112 z m -70.278445,-1.74579 c 0.19302,-0.36067 0.258694,-5.28704 0.207746,-15.58361 l -0.0745,-15.05622 1.167712,-0.15997 c 0.642242,-0.088 1.206571,-0.12111 1.254065,-0.0736 0.04749,0.0475 0.117336,7.13214 0.155205,15.74365 l 0.06885,15.65729 -1.530663,-7e-5 c -1.446937,-7e-5 -1.515225,-0.0289 -1.248418,-0.52745 z m 16.839836,0.0643 c 0.366471,-0.74834 0.440324,-16.42153 0.08322,-17.66093 -0.390099,-1.35391 -1.404576,-2.69467 -2.550464,-3.37076 -1.19845,-0.70711 -0.944462,-0.86251 0.746627,-0.45682 2.007844,0.48167 3.768884,2.27938 4.164317,4.25102 0.15759,0.78575 0.318557,5.0899 0.357703,9.56478 l 0.07117,8.13613 -1.549661,-2e-4 c -1.385826,-1.7e-4 -1.52569,-0.0491 -1.322917,-0.46322 z m 13.586722,-0.44754 c -1.742769,-0.90837 -3.769564,-3.17734 -4.510311,-5.04924 -0.533924,-1.34926 -0.626148,-2.0459 -0.62959,-4.75582 -0.0036,-2.86321 0.0662,-3.34056 0.711175,-4.86093 0.393364,-0.92726 1.137551,-2.20135 1.653749,-2.8313 0.978428,-1.19404 2.44843,-2.38128 2.671824,-2.15789 0.07122,0.0712 -0.249247,0.69065 -0.712138,1.37653 -1.159848,1.71857 -1.771424,3.8671 -1.973327,6.93253 -0.298897,4.53806 0.866654,8.28027 3.324677,10.67446 1.4739,1.43562 1.314016,1.63595 -0.536059,0.67166 z m 27.439126,0.20301 c -0.08683,-0.1405 -2.07713,-4.47385 -4.422886,-9.62968 -2.345756,-5.15582 -4.501421,-9.77868 -4.790367,-10.27301 -0.670517,-1.14713 -0.406608,-1.40166 1.347067,-1.29916 l 1.390768,0.0813 0.06338,1.05833 c 0.06146,1.02625 0.94045,3.11684 5.528757,13.14955 1.111352,2.43006 2.015649,4.63271 2.009549,4.89479 -0.01572,0.67535 -0.936456,2.32501 -1.126265,2.0179 z m 93.741521,-6.32583 c 0,-0.13589 1.35809,-12.53502 2.12763,-19.42495 0.28889,-2.58651 1.57009,-14.34744 2.24249,-20.58508 0.20866,-1.9357 0.50459,-3.98448 0.65764,-4.55283 0.59715,-2.21766 2.98561,-3.68418 5.40853,-3.32084 2.21645,0.33238 3.58204,1.84273 3.58488,3.96489 0.002,1.35702 -0.24774,2.16646 -6.73613,21.84803 -3.07391,9.32426 -4.71164,14.46437 -6.34364,19.90989 -0.59169,1.97431 -0.9414,2.77703 -0.9414,2.16089 z M 75.570947,144.93102 c -0.184568,-0.0745 -0.330729,-0.58567 -0.330729,-1.15672 0,-1.78399 -0.54832,-3.67042 -1.461127,-5.02685 -1.186737,-1.76348 -0.549494,-1.74425 1.337476,0.0404 1.815723,1.71723 3.093474,4.88746 2.413391,5.98786 -0.201673,0.32631 -1.316262,0.41469 -1.959011,0.15534 z M 98.70238,137.3269 c -0.178412,-0.46493 0.03482,-0.68732 0.659018,-0.68732 0.559147,0 0.623572,0.28483 0.16757,0.74083 -0.416295,0.4163 -0.652167,0.40103 -0.826588,-0.0535 z m 66.89026,-26.633 c -0.25726,-1.52272 -1.78277,-4.44562 -3.10309,-5.94558 -2.11703,-2.40507 -5.54575,-4.12443 -9.01798,-4.52215 -1.01206,-0.11592 -1.4205,-0.25547 -1.19063,-0.406791 0.51697,-0.340311 4.59987,-0.0058 8.83924,0.724261 2.04976,0.35297 4.17844,0.64177 4.7304,0.64177 h 1.00355 l -0.1723,2.97656 c -0.34417,5.94564 -0.49712,7.60678 -0.7004,7.60678 -0.11396,0 -0.28892,-0.48369 -0.38879,-1.07485 z"
         id="path32" /><path
         style="fill:#161616"
         d="m 135.2054,172.19974 c -7.16286,-1.29396 -13.66791,-5.30992 -18.07228,-11.15708 -5.55433,-7.37385 -7.59197,-17.60327 -5.51216,-27.67231 2.46883,-11.95236 11.39074,-23.42061 22.57569,-29.01885 2.33915,-1.17078 5.607,-2.45543 5.78733,-2.2751 0.0649,0.0649 -0.69437,0.54669 -1.68733,1.07058 -2.51353,1.32614 -5.08225,3.31449 -7.88975,6.10714 -5.30267,5.27464 -8.98708,12.31539 -10.35751,19.79279 -0.72774,3.97065 -0.59842,11.66624 0.28417,16.91117 1.55313,9.22968 3.78578,15.09444 7.47939,19.64696 2.34605,2.8916 6.02284,5.3744 9.40591,6.35146 0.83675,0.24166 1.52136,0.49046 1.52136,0.55289 0,0.19925 -1.39359,0.0772 -3.53482,-0.30965 z m 20.19179,-3.21948 c 4.54156,-3.20433 7.41039,-7.15736 8.79915,-12.12456 0.52238,-1.86838 0.58601,-2.72892 0.5949,-8.04529 0.011,-6.58628 -0.25238,-8.16703 -1.63454,-9.80964 -0.78258,-0.93004 -2.48321,-1.81709 -3.50117,-1.82621 -0.39318,-0.004 -0.54933,-0.0992 -0.39687,-0.24321 0.27821,-0.26276 14.83845,-4.52636 15.45494,-4.52559 0.22311,2.8e-4 -0.12891,0.53258 -0.83144,1.25726 -2.74626,2.83282 -2.94873,4.06088 -2.56092,15.53306 0.28987,8.57513 0.28185,8.99719 -0.17588,9.26041 -0.26378,0.15169 -2.09667,1.57051 -4.0731,3.15293 -4.96339,3.97394 -9.17327,6.73137 -11.531,7.55272 l -0.79375,0.27651 z m -75.59291,-1.77889 c -0.976972,-0.42463 -1.055819,-0.79066 -0.364092,-1.69022 l 0.484037,-0.62946 1.293978,0.75832 c 1.048626,0.61454 1.590143,0.7543 2.855946,0.7371 1.374834,-0.0187 1.503339,0.0217 1.072595,0.33662 -1.214899,0.88835 -3.864165,1.13017 -5.342464,0.48764 z m 23.15447,-7.75429 c -0.0878,-0.33588 -0.46128,-0.57228 -1.09055,-0.69033 -1.46277,-0.27441 -1.948187,-1.55322 -0.9634,-2.538 1.30029,-1.30029 3.06637,-0.008 2.83384,2.07353 -0.14669,1.31307 -0.5733,1.94478 -0.77989,1.1548 z m -70.031363,-1.8505 c 0.260479,-0.74721 0.241034,-28.90364 -0.0205,-29.68825 -0.104526,-0.31358 0.117593,-0.39688 1.058334,-0.39688 h 1.190625 v 15.08125 c 0,8.29469 0.09632,15.23008 0.214052,15.41198 0.1621,0.25046 -0.139587,0.33073 -1.243007,0.33073 h -1.45706 z m 16.951714,-0.20575 c 0.153658,-0.5565 0.226423,-4.17091 0.17711,-8.7974 -0.08114,-7.61268 -0.102632,-7.89125 -0.702772,-9.1099 -0.340488,-0.6914 -1.054863,-1.62746 -1.5875,-2.08013 l -0.96843,-0.82303 0.79375,0.18 c 1.648241,0.37376 2.973183,1.40335 3.674543,2.85542 0.670842,1.38888 0.671128,1.39273 0.747236,10.0547 l 0.07614,8.66529 -1.235443,-1.8e-4 -1.235444,-1.9e-4 z m 12.448388,-0.38573 c -3.200212,-2.13702 -4.413209,-4.9181 -4.242269,-9.72639 0.09015,-2.53578 0.19212,-3.02877 0.969242,-4.68601 0.760972,-1.62279 2.726128,-4.10104 3.251967,-4.10104 0.101861,0 -0.228851,0.80702 -0.734915,1.79337 -1.000949,1.95091 -1.38896,4.02298 -1.403889,7.49708 -0.0166,3.86302 0.986255,6.87146 2.964831,8.89411 0.602003,0.61541 1.03001,1.18347 0.951127,1.26235 -0.07888,0.0789 -0.869125,-0.34118 -1.756094,-0.93347 z m 24.569515,-7.33667 c -1.956215,-4.32821 -4.069574,-8.90889 -4.696354,-10.17929 -0.626779,-1.2704 -1.139599,-2.37173 -1.139599,-2.4474 0,-0.0757 0.642938,-0.13758 1.42875,-0.13758 h 1.42875 v 0.91659 c 0,0.61532 1.26802,3.70953 3.857738,9.41361 3.836409,8.45003 3.855646,8.50201 3.479542,9.40215 -0.208007,0.49784 -0.473567,0.90431 -0.590133,0.90327 -0.116566,-0.001 -1.812478,-3.54314 -3.768694,-7.87135 z m 97.620646,0.53104 c 0.002,-0.10914 0.23867,-2.16296 0.52487,-4.56406 0.2862,-2.40109 0.82395,-7.28265 1.19501,-10.84791 0.37106,-3.56527 0.79464,-7.49433 0.9413,-8.73125 0.14665,-1.23693 0.37682,-3.32053 0.51147,-4.63021 0.70133,-6.82111 1.56841,-14.08481 1.73712,-14.55209 0.37091,-1.02733 1.51608,-2.30954 2.38814,-2.6739 1.98816,-0.83071 4.61852,-0.24696 5.69421,1.2637 1.25291,1.75955 1.31678,1.48426 -4.25621,18.34354 -3.35779,10.15789 -7.10589,21.80421 -7.94024,24.67239 -0.4857,1.66967 -0.8105,2.37168 -0.79567,1.71979 z M 75.196536,142.79114 c -0.09682,-1.99096 -0.355332,-2.79231 -1.425674,-4.41935 l -0.513998,-0.78134 0.885171,0.51675 c 1.713118,1.0001 2.996962,3.0981 3.352003,5.47769 l 0.187513,1.25677 H 76.4889 75.296249 Z m 23.72389,-5.62239 c -0.08994,-0.14553 0.02913,-0.26459 0.264583,-0.26459 0.235458,0 0.354521,0.11906 0.264584,0.26459 -0.08994,0.14552 -0.209,0.26458 -0.264584,0.26458 -0.05558,0 -0.174646,-0.11906 -0.264583,-0.26458 z m 66.672764,-27.00924 c -0.37958,-1.75056 -2.01566,-4.55235 -3.53167,-6.04798 -1.74875,-1.72525 -3.63471,-2.8025 -6.38797,-3.64878 l -1.98437,-0.609946 2.38125,0.159196 c 1.30968,0.0876 3.54944,0.38232 4.97723,0.65501 1.42779,0.2727 3.31182,0.5768 4.18674,0.67579 1.44839,0.16386 1.57835,0.22999 1.4522,0.73889 -0.0762,0.30741 -0.21961,2.28534 -0.31868,4.39539 -0.19094,4.06703 -0.43736,5.23832 -0.77473,3.68243 z"
         id="path31" /><path
         style="fill:#010101"
         d="m 132.71023,171.41705 c -6.4985,-1.92132 -11.60155,-5.40755 -15.44656,-10.55255 -2.74342,-3.67099 -4.53975,-7.79784 -5.65331,-12.98783 -0.7006,-3.2653 -0.64823,-10.54374 0.10119,-14.06507 2.31497,-10.87729 9.11013,-20.72965 18.61429,-26.98899 2.38977,-1.57388 7.02423,-3.94054 7.25824,-3.70653 0.0569,0.0569 -0.46339,0.45659 -1.15616,0.88825 -1.93781,1.20743 -5.91023,4.63998 -7.6762,6.63297 -4.58331,5.1725 -7.79262,11.94507 -8.93648,18.85853 -0.58762,3.55156 -0.58661,9.89676 0.002,14.17167 2.06131,14.96411 6.56867,23.44128 14.55709,27.37812 1.72814,0.85166 1.97097,1.041 1.32292,1.03155 -0.43656,-0.006 -1.78084,-0.30343 -2.98728,-0.66012 z m 25.54999,-4.47921 c 3.90742,-3.56644 6.08882,-8.01365 6.65013,-13.55755 0.30957,-3.05753 -0.0409,-11.04653 -0.55445,-12.63967 -0.45977,-1.42625 -2.28228,-3.22428 -3.49965,-3.45266 -0.52215,-0.098 -0.94892,-0.25415 -0.94837,-0.3471 5.5e-4,-0.0929 1.22094,-0.51579 2.71198,-0.93966 1.49104,-0.42387 4.66685,-1.34535 7.05736,-2.04772 2.3905,-0.70238 4.39947,-1.22396 4.46437,-1.15906 0.0649,0.0649 -0.37546,0.67861 -0.97858,1.36379 -0.77125,0.87618 -1.26392,1.79669 -1.66059,3.10265 -0.54035,1.77897 -0.55653,2.17953 -0.38568,9.54748 0.0981,4.22984 0.24992,8.41645 0.33744,9.30359 0.11823,1.19859 0.0658,1.69146 -0.20399,1.91849 -0.69102,0.58142 -5.39829,4.30653 -7.38011,5.84027 -1.96259,1.51885 -4.60923,3.23328 -6.36907,4.12574 -0.72586,0.3681 -0.578,0.16193 0.75921,-1.05859 z m -78.463214,-0.0185 c -0.678808,-0.47546 -0.70129,-0.60727 -0.213294,-1.25057 0.339791,-0.44792 0.421751,-0.43787 1.618493,0.19844 0.807657,0.42944 1.69797,0.67362 2.47794,0.67963 1.188919,0.009 1.201908,0.0182 0.555906,0.3875 -0.909177,0.51973 -3.689017,0.51034 -4.439045,-0.015 z m 22.959874,-8.07029 c -0.21828,-0.11966 -0.72248,-0.286 -1.12045,-0.36965 -0.49833,-0.10474 -0.77813,-0.36947 -0.89885,-0.85046 -0.22865,-0.911 0.17512,-1.52142 1.0772,-1.62849 1.0396,-0.12341 1.73585,0.61107 1.73585,1.83116 0,1.10083 -0.19221,1.34721 -0.79375,1.01744 z M 33.303759,142.98962 v -15.34583 l 0.855711,-2e-5 0.85571,-2e-5 0.07033,7.20989 c 0.03868,3.96544 0.0372,10.87107 -0.0033,15.34583 l -0.07363,8.13594 -0.852412,2e-5 -0.852412,2e-5 z m 16.801042,6.47375 c 0,-9.64312 -0.05148,-10.03516 -1.518745,-11.56702 -0.547652,-0.57176 -0.603288,-0.7276 -0.259754,-0.7276 0.660083,0 2.268033,1.53091 2.891614,2.75307 0.525496,1.02993 0.554102,1.51095 0.579725,9.74842 l 0.02695,8.66503 -0.859896,7e-5 -0.859896,7e-5 z m 11.643597,6.91882 c -2.20983,-1.7487 -3.372174,-4.22635 -3.632283,-7.74257 -0.163448,-2.20952 0.207232,-4.06283 1.262358,-6.3115 0.700765,-1.49346 2.367995,-3.49529 2.367995,-2.84324 0,0.16416 -0.115833,0.37006 -0.257405,0.45755 -0.574386,0.35499 -1.35988,3.7954 -1.511218,6.61902 -0.22535,4.20453 0.55138,7.08499 2.728992,10.12032 0.586268,0.81718 0.365687,0.74824 -0.958439,-0.29958 z m 27.914473,-1.08949 c -0.541301,-1.16416 -1.732778,-3.78354 -2.647727,-5.82083 -0.914948,-2.03729 -2.558096,-5.63893 -3.65144,-8.00365 l -1.987897,-4.29947 h 1.165539 c 1.085807,0 1.165538,0.0482 1.165538,0.70441 0,0.72161 0.83888,2.70941 5.219706,12.3686 2.460535,5.42518 2.501518,5.54824 2.114813,6.35 l -0.394347,0.81761 z m 95.467209,-8.46666 c 0.16945,-1.66218 0.81036,-7.66813 1.22819,-11.50938 0.13454,-1.23693 0.66987,-6.17802 1.18961,-10.98021 1.98555,-18.34563 1.96555,-18.23386 3.4768,-19.42261 2.09991,-1.65179 5.47988,-1.10364 6.60447,1.07109 0.31906,0.61699 0.40065,1.22634 0.29383,2.19451 -0.0813,0.73719 -2.40715,8.18644 -5.16849,16.55389 -2.76133,8.36745 -5.58484,17.05901 -6.27446,19.31458 -0.68962,2.25557 -1.31188,4.16057 -1.38282,4.23334 -0.0709,0.0728 -0.0562,-0.58209 0.0329,-1.45521 z M 75.447816,142.78688 c -0.07045,-0.98461 -0.377746,-2.35459 -0.682882,-3.04441 l -0.554794,-1.2542 0.619548,0.46472 c 0.903853,0.67797 1.719663,1.96663 2.149785,3.39581 0.586782,1.94973 0.522644,2.22828 -0.513079,2.22828 h -0.89049 z m 89.957364,-33.85597 c -0.6518,-1.84592 -2.28925,-4.26267 -3.77319,-5.56888 -1.11083,-0.97779 -2.21255,-1.60428 -5.16469,-2.93687 -0.55377,-0.24997 -0.42454,-0.27402 0.79375,-0.14773 0.80037,0.083 2.70537,0.37565 4.23333,0.65039 1.52797,0.27475 3.25438,0.5344 3.83646,0.57701 l 1.05834,0.0775 -0.0976,1.85208 c -0.0537,1.01865 -0.17274,2.96192 -0.26458,4.31838 l -0.16699,2.46629 z"
         id="path30" /></g></g></svg>
